<svg width="87" height="28" viewBox="0 0 87 28" fill="none" xmlns="http://www.w3.org/2000/svg">
<path d="M19.7393 27.6191C19.6742 27.6204 19.6097 27.6073 19.5502 27.5809C19.4907 27.5545 19.4377 27.5153 19.395 27.4662C19.3045 27.369 19.2545 27.2408 19.2554 27.108C19.2798 26.9515 19.3182 26.7975 19.3699 26.6478L21.1603 21.9691L16.7785 10.4352C16.7064 10.2999 16.6591 10.1528 16.6388 10.0009C16.6494 9.85906 16.7058 9.7245 16.7995 9.61751C16.8386 9.56949 16.8879 9.53074 16.9438 9.50405C16.9997 9.47737 17.0608 9.46341 17.1228 9.46319H18.1786C18.3016 9.46543 18.4209 9.50608 18.5197 9.57945C18.6185 9.65283 18.6919 9.75525 18.7296 9.87239L22.2637 19.2828L25.8899 9.87239C25.9276 9.75525 26.001 9.65283 26.0998 9.57945C26.1986 9.50608 26.3179 9.46543 26.4409 9.46319H27.4737C27.5352 9.46363 27.5959 9.47763 27.6514 9.50418C27.7069 9.53073 27.7559 9.56919 27.7949 9.61681C27.8854 9.71379 27.9354 9.84171 27.9346 9.97435C27.9253 10.1335 27.8864 10.2896 27.82 10.4345L21.3258 27.2092C21.2653 27.3257 21.1836 27.4298 21.0849 27.5165C20.9894 27.5881 20.8718 27.6242 20.7525 27.6184L19.7393 27.6191ZM15.1626 22.7778C15.0929 22.7796 15.0235 22.766 14.9597 22.7379C14.8958 22.7098 14.8389 22.6678 14.7932 22.6151C14.6938 22.5003 14.6416 22.352 14.6473 22.2003V15.1662C14.739 14.151 14.4781 13.1353 13.9085 12.2899C13.6708 12.0071 13.3718 11.782 13.0343 11.6318C12.6968 11.4815 12.3295 11.41 11.9602 11.4226C11.605 11.423 11.2543 11.5034 10.9344 11.6578C10.6144 11.8121 10.3333 12.0366 10.1118 12.3144C9.52623 13.144 9.25268 14.1538 9.3395 15.1655V22.1996C9.34516 22.3512 9.29328 22.4994 9.19425 22.6144C9.14847 22.667 9.09162 22.7089 9.02776 22.7371C8.9639 22.7652 8.89461 22.7788 8.82485 22.7771H7.83885C7.76909 22.7788 7.6998 22.7652 7.63594 22.7371C7.57208 22.7089 7.51522 22.667 7.46945 22.6144C7.37042 22.4994 7.31854 22.3512 7.3242 22.1996V15.1662C7.41443 14.1505 7.1407 13.1358 6.55188 12.3032C6.31834 12.0233 6.02524 11.799 5.69398 11.6468C5.36272 11.4946 5.00166 11.4182 4.63714 11.4233C4.28312 11.4234 3.93357 11.5024 3.61394 11.6546C3.29431 11.8068 3.01264 12.0284 2.78943 12.3032C2.20252 13.1269 1.92844 14.1328 2.01641 15.1404V22.2003C2.02209 22.352 1.96993 22.5003 1.87047 22.6151C1.82475 22.6678 1.76791 22.7098 1.70403 22.7379C1.64016 22.766 1.57084 22.7796 1.50106 22.7778H0.515762C0.446003 22.7795 0.376714 22.7659 0.312853 22.7378C0.248992 22.7096 0.192138 22.6677 0.14636 22.6151C0.0469165 22.5 -0.00523326 22.3515 0.000415247 22.1996V10.2921C-0.00507 10.1407 0.0468039 9.99278 0.145662 9.87798C0.19148 9.82513 0.248423 9.78307 0.312409 9.75482C0.376395 9.72657 0.445839 9.71283 0.515762 9.71458H1.45637C1.5249 9.71195 1.59309 9.72536 1.65552 9.75372C1.71795 9.78209 1.7729 9.82464 1.816 9.87798C1.90842 9.996 1.95593 10.143 1.95007 10.2928V11.1461C2.30945 10.6133 2.79739 10.1798 3.36874 9.88567C3.9401 9.59151 4.57641 9.4462 5.21882 9.46319C5.97015 9.43121 6.71237 9.63752 7.33943 10.0526C7.96649 10.4678 8.4463 11.0704 8.71033 11.7746C9.05819 11.0832 9.58971 10.5009 10.2466 10.0917C10.9134 9.672 11.6871 9.45377 12.4749 9.46319C13.0501 9.44941 13.6207 9.56932 14.1418 9.81348C14.6628 10.0576 15.1201 10.4194 15.4776 10.8703C16.328 12.0497 16.7395 13.4893 16.6409 14.94V22.2024C16.6466 22.354 16.5947 22.5022 16.4957 22.6172C16.4499 22.6698 16.3931 22.7117 16.3292 22.7398C16.2653 22.768 16.196 22.7816 16.1263 22.7799L15.1626 22.7778Z" fill="#0068F5"/>
<path d="M40.9629 16.0249C40.9629 19.4933 43.2924 22.7153 47.4522 22.7153C51.612 22.7153 53.9415 19.4933 53.9415 16.0249C53.9415 12.5564 51.6127 9.33301 47.4522 9.33301C43.2917 9.33301 40.9629 12.5557 40.9629 16.0249ZM43.4069 16.0249C43.4069 13.8105 44.4607 11.2031 47.4571 11.2031C50.4535 11.2031 51.5072 13.8105 51.5072 16.0249C51.5072 18.2392 50.4535 20.8432 47.4571 20.8432C44.4607 20.8432 43.4035 18.2392 43.4035 16.0249H43.4069Z" fill="#0068F5"/>
<path d="M57.8649 21.1665C58.07 21.6276 58.4044 22.0194 58.8276 22.2943C59.2508 22.5693 59.7446 22.7156 60.2493 22.7156C60.7539 22.7156 61.2477 22.5693 61.6709 22.2943C62.0941 22.0194 62.4285 21.6276 62.6336 21.1665L66.1551 13.3923C66.5156 12.7296 66.7417 12.0022 66.8206 11.252C66.7817 10.7128 66.5335 10.2102 66.129 9.85151C65.7245 9.49283 65.1959 9.30651 64.6559 9.33234C64.1941 9.29304 63.7332 9.41674 63.3532 9.68195C62.9731 9.94717 62.698 10.3371 62.5756 10.7841L60.2712 16.5898H60.2161L57.9117 10.7848C57.7894 10.3376 57.5142 9.94749 57.134 9.68224C56.7538 9.41699 56.2926 9.29342 55.8307 9.33304C55.2907 9.30703 54.762 9.49329 54.3574 9.852C53.9529 10.2107 53.7048 10.7134 53.666 11.2527C53.7446 12.003 53.9707 12.7304 54.3315 13.393L57.8649 21.1665Z" fill="#0068F5"/>
<path d="M38.1794 11.3728H38.1242C37.6123 10.7695 36.975 10.2853 36.2566 9.9537C35.5383 9.62215 34.7563 9.45133 33.9651 9.45314C29.6943 9.45314 27.6699 12.8476 27.6699 16.145C27.6699 19.8355 29.7781 22.8368 34.021 22.8368C34.8187 22.8859 35.6157 22.7283 36.3347 22.3793C37.0537 22.0303 37.6706 21.5017 38.1256 20.8446H38.1808V22.2223C38.1808 25.1741 35.9071 26.3787 33.5496 26.3787C31.2201 26.3787 29.8884 24.7306 29.0847 24.7306C28.957 24.7118 28.8266 24.7215 28.7031 24.7591C28.5796 24.7967 28.466 24.8612 28.3704 24.9481C28.2749 25.0349 28.1998 25.1419 28.1507 25.2613C28.1015 25.3807 28.0794 25.5095 28.0861 25.6384C28.0861 26.5232 30.8039 28.0001 33.7424 28.0001C36.9874 28.0001 40.1758 26.1301 40.1758 22.0715V10.5851C40.1758 9.84698 39.8155 9.45384 39.1779 9.45384C38.5404 9.45384 38.1794 9.84698 38.1794 10.5851V11.3728ZM29.8319 16.145C29.8319 13.7589 30.9135 10.9308 34.0217 10.9308C34.5577 10.9121 35.0922 11.0002 35.5939 11.1898C36.0957 11.3794 36.5548 11.6668 36.9446 12.0353C37.3344 12.4037 37.6471 12.846 37.8646 13.3363C38.082 13.8266 38.2 14.3553 38.2115 14.8915V17.4012C38.1978 17.9369 38.0785 18.4645 37.8603 18.9538C37.6421 19.4432 37.3293 19.8845 36.9399 20.2526C36.5506 20.6207 36.0923 20.9082 35.5915 21.0986C35.0907 21.2889 34.5572 21.3785 34.0217 21.362C30.9128 21.3606 29.8319 18.5318 29.8319 16.145Z" fill="#0068F5"/>
<path d="M66.6302 8.94801C67.81 8.94801 68.7663 7.99164 68.7663 6.8119C68.7663 5.63215 67.81 4.67578 66.6302 4.67578C65.4505 4.67578 64.4941 5.63215 64.4941 6.8119C64.4941 7.99164 65.4505 8.94801 66.6302 8.94801Z" fill="#0068F5"/>
<path d="M68.6439 4.27223C69.8237 4.27223 70.78 3.31586 70.78 2.13611C70.78 0.956371 69.8237 0 68.6439 0C67.4642 0 66.5078 0.956371 66.5078 2.13611C66.5078 3.31586 67.4642 4.27223 68.6439 4.27223Z" fill="#0068F5"/>
<g clip-path="url(#clip0_2491_5313)">
<path d="M80.8185 24.0004L80.7167 23.8499C80.4371 23.4484 79.5968 23.2242 78.2199 23.1822L78.0641 23.1749C74.7534 22.8227 74.7793 20.2311 74.7793 20.2052V9.58789H86.8571V20.2062C86.8571 20.2285 86.8836 22.8201 83.5739 23.1724C83.5216 23.1721 83.4692 23.1745 83.4171 23.1796C82.0413 23.2216 81.196 23.4458 80.9203 23.8484L80.8185 24.0004ZM75.0292 9.83641V20.2062C75.0292 20.3058 75.0121 22.6058 78.0889 22.9347H78.2259C78.7366 22.9508 80.2302 22.9949 80.8168 23.5864C81.4046 22.9965 82.897 22.9508 83.4088 22.9347H83.5459C86.6309 22.6048 86.6073 20.2322 86.6045 20.2088V9.83226L75.0292 9.83641Z" fill="#0068F5"/>
<path d="M82.5363 18.6177H81.5645V17.9375H82.5363V18.6177ZM81.6085 18.5808H82.4928V17.9769H81.6068L81.6085 18.5808Z" fill="#0068F5"/>
<path d="M82.2204 19.5652C82.1492 19.563 82.0792 19.548 82.014 19.5211V19.4827H82.0256C82.1038 19.5171 82.1909 19.5295 82.2765 19.5185C82.2897 19.5164 82.3023 19.5119 82.3135 19.5051C82.3248 19.4983 82.3345 19.4895 82.342 19.4791C82.3539 19.4606 82.3577 19.4384 82.3524 19.4173C82.3477 19.4005 82.337 19.3857 82.3222 19.3753L82.2985 19.3509C82.2885 19.3353 82.2848 19.3169 82.2882 19.2989C82.2915 19.281 82.3016 19.2648 82.3167 19.2534L82.3508 19.2767C82.326 19.3089 82.3288 19.3198 82.3337 19.3286C82.3391 19.3357 82.3452 19.3423 82.3519 19.3483C82.3755 19.3669 82.391 19.3931 82.3955 19.4217C82.4001 19.4504 82.3934 19.4796 82.3767 19.504C82.3661 19.5185 82.3526 19.5309 82.3369 19.5404C82.3212 19.55 82.3037 19.5564 82.2853 19.5595L82.2204 19.5652ZM82.7652 19.5579C82.7351 19.5591 82.7055 19.5513 82.6804 19.5356C82.61 19.4936 82.6282 19.4236 82.6414 19.368C82.6478 19.3467 82.6516 19.3248 82.6529 19.3027L82.6386 19.2928L82.6584 19.257C82.6661 19.257 82.6964 19.2767 82.6964 19.2954C82.6962 19.3238 82.6913 19.3519 82.6821 19.3789C82.6678 19.4391 82.6601 19.4775 82.703 19.5019C82.7341 19.5167 82.7695 19.5215 82.8037 19.5154H82.8444C82.8828 19.5145 82.9202 19.504 82.9528 19.4849C82.9854 19.4658 83.012 19.4389 83.0299 19.4069L83.0679 19.4241C83.0459 19.4617 83.0135 19.493 82.9742 19.5146C82.9348 19.5363 82.89 19.5475 82.8444 19.547C82.8324 19.5458 82.8202 19.5458 82.8081 19.547L82.7652 19.5579ZM82.0085 19.3722H81.8984V19.3317H81.9298C81.9843 19.3419 82.0404 19.3419 82.0949 19.3317C82.1125 19.328 82.129 19.3204 82.1429 19.3095C82.1568 19.2985 82.1677 19.2846 82.1747 19.2689C82.1785 19.2569 82.1811 19.2446 82.1824 19.2321C82.1918 19.1901 82.2006 19.1434 82.249 19.1237C82.2681 19.1182 82.2884 19.1177 82.3078 19.1222C82.3272 19.1268 82.3449 19.1363 82.3591 19.1496C82.3805 19.1678 82.4083 19.178 82.4372 19.1781V19.2176C82.4179 19.2191 82.3984 19.217 82.38 19.2112C82.3615 19.2055 82.3445 19.1964 82.3299 19.1844C82.2985 19.1657 82.2804 19.1522 82.2567 19.1621C82.233 19.1719 82.2226 19.1989 82.216 19.2409C82.2136 19.2542 82.2105 19.2674 82.2066 19.2804C82.1983 19.3033 82.1838 19.3238 82.1645 19.3398C82.1452 19.3558 82.1217 19.3668 82.0965 19.3717C82.0645 19.379 82.0316 19.3827 81.9986 19.3826L82.0085 19.3722ZM82.829 19.3535L82.8043 19.3239C82.8322 19.2887 82.8448 19.2447 82.8395 19.201C82.8341 19.1861 82.8234 19.1734 82.8092 19.1652C82.7872 19.1527 82.7646 19.1652 82.7333 19.1724C82.706 19.1858 82.6754 19.1923 82.6447 19.1911V19.1506C82.6684 19.1518 82.692 19.1467 82.7129 19.1361C82.7299 19.1278 82.7488 19.1234 82.7679 19.1234C82.7871 19.1234 82.806 19.1278 82.823 19.1361C82.8356 19.142 82.8468 19.1505 82.8556 19.1609C82.8645 19.1713 82.8708 19.1834 82.8741 19.1963C82.8814 19.2342 82.875 19.2733 82.856 19.3073C82.8848 19.3059 82.9126 19.2965 82.9358 19.2804L82.9633 19.2596C82.9783 19.2517 82.9913 19.2407 83.0013 19.2274L83.0354 19.2497C83.0226 19.2674 83.0061 19.2824 82.987 19.2938L82.9633 19.311C82.934 19.3318 82.8991 19.3445 82.8626 19.3478C82.8472 19.3489 82.8319 19.3514 82.8169 19.3551L82.829 19.3535Z" fill="#0068F5"/>
<path d="M83.2204 19.7346H81.707V18.9756H83.2204V19.7346ZM81.7516 19.6952H83.189V19.015H81.7516V19.6952Z" fill="#0068F5"/>
<path d="M82.3591 18.5168L82.3211 18.507C82.2639 18.4998 82.2104 18.4761 82.1681 18.439V18.4577C82.079 18.4499 81.9892 18.4631 81.9067 18.4961L81.8819 18.4577C81.9644 18.4247 82.0539 18.4099 82.1434 18.4146C82.1159 18.3731 82.1032 18.3244 82.107 18.2756C82.0779 18.2698 82.0507 18.2573 82.028 18.2391C82.0052 18.221 81.9876 18.1979 81.9766 18.1718L81.9623 18.1791C81.9405 18.185 81.9202 18.1949 81.9026 18.2083C81.8849 18.2216 81.8702 18.2382 81.8594 18.2569L81.8203 18.2434C81.8325 18.2196 81.8496 18.1984 81.8707 18.181C81.8918 18.1636 81.9164 18.1504 81.943 18.1422C81.957 18.1368 81.9706 18.1305 81.9838 18.1236L82.0151 18.1064V18.1422C82.0151 18.1941 82.074 18.2237 82.1224 18.2372C82.1317 18.2125 82.1498 18.1916 82.1736 18.178C82.1959 18.1671 82.221 18.1625 82.246 18.1647C82.271 18.1669 82.2948 18.1759 82.3145 18.1905C82.3462 18.2176 82.3673 18.2541 82.3742 18.294C82.3811 18.3338 82.3734 18.3747 82.3525 18.41L82.3183 18.3866C82.3331 18.359 82.3376 18.3275 82.3313 18.2971C82.3249 18.2668 82.3079 18.2393 82.2831 18.219C82.2667 18.2073 82.246 18.202 82.2254 18.2043C82.2049 18.2066 82.1861 18.2164 82.1731 18.2315C82.1643 18.2423 82.1584 18.2549 82.156 18.2683C82.1488 18.3111 82.1586 18.3549 82.1835 18.3913C82.2018 18.4127 82.2244 18.4304 82.25 18.4435C82.2756 18.4566 82.3037 18.4648 82.3327 18.4675L82.3706 18.4764L82.3591 18.5168ZM81.9007 18.4172H81.8902V18.3778C81.903 18.379 81.9158 18.377 81.9274 18.3717C81.9389 18.3665 81.9487 18.3584 81.9557 18.3482V18.3295C81.9452 18.3238 81.9332 18.3208 81.921 18.3208C81.9089 18.3208 81.8969 18.3238 81.8863 18.3295L81.8665 18.2937C81.8852 18.2848 81.9062 18.2811 81.9271 18.283C81.948 18.2849 81.9678 18.2924 81.9843 18.3046C81.9933 18.3127 81.9991 18.3234 82.0008 18.335C82.0025 18.3466 82 18.3584 81.9937 18.3685C81.9842 18.3849 81.9699 18.3985 81.9526 18.4077C81.9353 18.4169 81.9156 18.4212 81.8957 18.4203L81.9007 18.4172ZM82.2716 18.3607H82.2309C82.2312 18.3437 82.2252 18.3271 82.2138 18.314L82.2479 18.2917C82.2653 18.3122 82.2737 18.3381 82.2716 18.3643V18.3607Z" fill="#0068F5"/>
<path d="M80.5234 19.3015C80.5299 19.3081 80.5345 19.3161 80.5367 19.3249C80.5619 19.3279 80.5851 19.3393 80.6021 19.357C80.6144 19.3455 80.6299 19.3375 80.6467 19.3337C80.6297 19.3204 80.61 19.3107 80.5888 19.3051C80.5675 19.2996 80.5452 19.2984 80.5234 19.3015Z" fill="#0068F5"/>
<path d="M81.1808 19.3303C81.1571 19.3376 81.1522 19.3599 81.1466 19.3931C81.1437 19.4134 81.138 19.4333 81.1296 19.4522C81.1136 19.4782 81.0801 19.4709 81.0536 19.4647H81.0355C81.0366 19.4682 81.0366 19.472 81.0355 19.4756C81.0315 19.488 81.0262 19.5 81.0195 19.5114C81.0516 19.5331 81.0901 19.5449 81.1296 19.5449C81.1691 19.5449 81.2076 19.5331 81.2397 19.5114L81.2606 19.4989C81.2892 19.4865 81.3156 19.4766 81.3194 19.4507C81.3235 19.435 81.323 19.4185 81.3179 19.4031C81.3129 19.3877 81.3035 19.3738 81.2908 19.363C81.2775 19.3485 81.2601 19.3377 81.2407 19.3319C81.2213 19.3262 81.2005 19.3256 81.1808 19.3303Z" fill="#0068F5"/>
<path d="M78.2676 18.7803V19.959H83.4444V18.7803H78.2676ZM79.6175 19.4112C79.632 19.4021 79.6452 19.3913 79.6566 19.379L79.6907 19.4013C79.6779 19.4187 79.6614 19.4333 79.6423 19.4444L79.6186 19.4615C79.5896 19.4828 79.5546 19.4956 79.5179 19.4983L79.4722 19.5082L79.4475 19.4786C79.4754 19.4434 79.488 19.3994 79.4827 19.3556C79.4769 19.3407 79.4658 19.3281 79.4513 19.3199C79.4293 19.309 79.4084 19.3199 79.3743 19.3297C79.3477 19.343 79.318 19.3498 79.2879 19.3494V19.309C79.3108 19.3091 79.3334 19.3036 79.3534 19.2929C79.3707 19.2834 79.3903 19.2785 79.4103 19.2785C79.4303 19.2785 79.4499 19.2834 79.4673 19.2929C79.4797 19.2991 79.4906 19.3077 79.4994 19.318C79.5082 19.3284 79.5147 19.3403 79.5185 19.3531C79.5265 19.3909 79.52 19.4303 79.5003 19.4641C79.529 19.462 79.5566 19.4527 79.5801 19.4371C79.5883 19.4281 79.5975 19.4199 79.6076 19.4127L79.6175 19.4112ZM78.4492 19.8781H78.3942V18.9255H79.5702V18.9774H78.4437V19.8802L78.4492 19.8781ZM78.5708 19.7992H78.5158V19.0511H79.5113V19.103H78.5692V19.8003L78.5708 19.7992ZM79.142 19.6343C79.1318 19.6494 79.1184 19.6624 79.1027 19.6725C79.087 19.6827 79.0693 19.6898 79.0507 19.6934C79.0276 19.6959 79.0044 19.6959 78.9813 19.6934C78.9093 19.6911 78.8384 19.6761 78.7722 19.6493V19.6109H78.7816C78.8628 19.6478 78.954 19.6603 79.043 19.6467C79.0559 19.6447 79.0683 19.6402 79.0793 19.6334C79.0903 19.6266 79.0997 19.6177 79.1068 19.6073C79.1126 19.5981 79.1163 19.5878 79.1176 19.5772C79.119 19.5665 79.1179 19.5558 79.1145 19.5455C79.1093 19.5304 79.1005 19.5165 79.0887 19.5051C79.0797 19.4961 79.0714 19.4866 79.0639 19.4765C79.0441 19.4558 79.0496 19.4184 79.0799 19.379L79.114 19.4023C79.1008 19.421 79.0892 19.4428 79.098 19.4542C79.1058 19.4613 79.1128 19.4691 79.1189 19.4776C79.1402 19.4968 79.154 19.5222 79.1579 19.5497C79.1619 19.5772 79.1559 19.6052 79.1409 19.6291L79.142 19.6343ZM79.0964 19.3053C79.0661 19.2866 79.0468 19.2758 79.0243 19.2846C79.0017 19.2934 78.989 19.323 78.9835 19.3645V19.4003C78.9743 19.4236 78.9589 19.4444 78.9388 19.4605C78.9186 19.4767 78.8945 19.4877 78.8685 19.4926C78.8528 19.4975 78.8361 19.4988 78.8198 19.4964C78.8034 19.4941 78.7879 19.4882 78.7744 19.4791C78.7561 19.4638 78.7417 19.4448 78.7322 19.4235C78.7227 19.4022 78.7183 19.3792 78.7194 19.3562H78.7612C78.7604 19.3724 78.7632 19.3885 78.7695 19.4037C78.7758 19.4188 78.7853 19.4325 78.7975 19.4439C78.8058 19.4498 78.8156 19.4536 78.826 19.4548C78.8363 19.4561 78.8468 19.4548 78.8564 19.4511C78.8745 19.4477 78.8915 19.4402 78.9058 19.4292C78.9202 19.4183 78.9316 19.4043 78.939 19.3883V19.3577C78.9456 19.3157 78.9533 19.2643 79.0028 19.2446C79.022 19.2397 79.0422 19.2395 79.0614 19.2441C79.0807 19.2486 79.0984 19.2577 79.1129 19.2706C79.1233 19.2797 79.1356 19.2868 79.1491 19.2912C79.1625 19.2957 79.1768 19.2975 79.191 19.2965L79.1976 19.337C79.1592 19.3392 79.1213 19.3273 79.092 19.3038L79.0964 19.3053ZM79.4882 19.7069H79.4541C79.4402 19.7081 79.4262 19.7081 79.4122 19.7069C79.3819 19.7081 79.3519 19.7009 79.3258 19.6861C79.2554 19.6441 79.2708 19.5741 79.2868 19.5175C79.2932 19.4961 79.2976 19.4743 79.3 19.4522L79.284 19.4423L79.3022 19.4065C79.3115 19.4065 79.3412 19.4262 79.3412 19.4433C79.3402 19.4712 79.3358 19.4989 79.328 19.5258C79.3126 19.5876 79.306 19.6254 79.349 19.6488C79.3811 19.6634 79.4174 19.6677 79.4524 19.6612H79.4904C79.5292 19.6603 79.5671 19.6496 79.6001 19.6304C79.6332 19.6112 79.6603 19.584 79.6786 19.5518L79.7155 19.5704C79.6935 19.6099 79.6606 19.6429 79.6203 19.6661C79.58 19.6893 79.5338 19.7018 79.4865 19.7022L79.4882 19.7069ZM79.9284 19.8584H79.8734V18.827H81.2608V18.8788H79.9191V19.8646L79.9284 19.8584ZM80.0589 19.7785H80.0038V18.9484H81.1628V19.0003H80.0446V19.7785H80.0589ZM80.4859 19.6306C80.4777 19.6237 80.4679 19.6187 80.4573 19.6161C80.4371 19.6101 80.4193 19.5985 80.4061 19.5829C80.3942 19.5865 80.3827 19.5913 80.372 19.5974L80.3417 19.6208C80.3123 19.6482 80.2778 19.6703 80.2399 19.6861L80.2256 19.6478C80.2592 19.6338 80.2898 19.6141 80.3159 19.5896L80.3472 19.5663C80.3577 19.559 80.4138 19.5269 80.4386 19.5575C80.4477 19.567 80.4595 19.5739 80.4727 19.5772C80.4887 19.5818 80.5034 19.5898 80.5156 19.6005L80.4859 19.6306ZM80.52 19.4926C80.5134 19.4693 80.4859 19.4542 80.4545 19.4407C80.429 19.4292 80.4055 19.4137 80.3852 19.3951L80.372 19.3816V19.3904C80.381 19.4098 80.385 19.431 80.3836 19.4522H80.3417C80.3419 19.437 80.3387 19.422 80.3324 19.4081C80.3275 19.3956 80.324 19.3828 80.3219 19.3697V19.3499H80.3428C80.3564 19.3464 80.3707 19.3469 80.384 19.3512C80.3973 19.3556 80.4088 19.3636 80.4171 19.3743C80.4342 19.3903 80.4541 19.4033 80.476 19.4127C80.5123 19.4324 80.5503 19.4511 80.5624 19.4916L80.52 19.4926ZM81.3719 19.4522C81.3661 19.4698 81.3557 19.4859 81.3418 19.499C81.3279 19.5121 81.3109 19.5219 81.2921 19.5274L81.274 19.5372C81.2357 19.5626 81.19 19.5762 81.1433 19.5762C81.0965 19.5762 81.0508 19.5626 81.0126 19.5372C80.9759 19.5679 80.9331 19.5914 80.8867 19.6065C80.8404 19.6215 80.7913 19.6278 80.7424 19.6249V19.5845C80.848 19.5845 80.9829 19.5585 81.0175 19.4615C81.0264 19.4362 81.0264 19.4089 81.0175 19.3837C81.0084 19.3672 80.9965 19.3523 80.9823 19.3396C80.9662 19.3252 80.9454 19.3164 80.9233 19.3146C80.9012 19.3128 80.8791 19.3181 80.8607 19.3297C80.8387 19.3422 80.8304 19.3557 80.8464 19.3899L80.8084 19.407C80.7821 19.3849 80.7484 19.3723 80.7132 19.3712C80.7012 19.3699 80.6891 19.3716 80.6781 19.3762C80.6671 19.3807 80.6575 19.388 80.6505 19.3972L80.6389 19.4143L80.6218 19.4044L80.5971 19.3857C80.5866 19.3742 80.5722 19.3663 80.5563 19.3634C80.5483 19.3639 80.5404 19.3616 80.5339 19.3571C80.5275 19.3525 80.5229 19.3459 80.5211 19.3385C80.5219 19.3353 80.5219 19.3319 80.5211 19.3287C80.5135 19.3215 80.5065 19.3136 80.5002 19.3053C80.4985 19.3005 80.4952 19.2962 80.4907 19.2933C80.4862 19.2904 80.4809 19.289 80.4755 19.2892H80.4633C80.4474 19.2794 80.432 19.2695 80.4149 19.2607C80.3599 19.2462 80.3049 19.2322 80.2674 19.2695C80.23 19.3069 80.2361 19.4112 80.2674 19.5035L80.2267 19.516C80.1992 19.4371 80.1563 19.3178 80.2361 19.2415C80.263 19.2217 80.2955 19.2096 80.3296 19.2068C80.3637 19.2039 80.3979 19.2104 80.4281 19.2254C80.4463 19.2342 80.4633 19.2441 80.4804 19.254C80.4935 19.2563 80.5056 19.2618 80.5156 19.27C80.5529 19.26 80.5925 19.2604 80.6295 19.2714C80.6665 19.2824 80.6992 19.3034 80.7237 19.3318C80.75 19.334 80.7757 19.3407 80.7996 19.3515C80.8009 19.3396 80.8054 19.3283 80.8127 19.3185C80.8201 19.3088 80.8299 19.301 80.8414 19.296C80.8674 19.2798 80.8984 19.2723 80.9295 19.2747C80.9605 19.2772 80.9898 19.2894 81.0126 19.3095C81.0307 19.3268 81.0458 19.3468 81.0571 19.3686C81.0646 19.385 81.0681 19.4027 81.0676 19.4205C81.0758 19.4199 81.0841 19.4199 81.0924 19.4205C81.1027 19.4223 81.1134 19.4223 81.1237 19.4205C81.1288 19.4066 81.132 19.3921 81.1331 19.3774C81.1323 19.3572 81.1378 19.3371 81.149 19.3198C81.1601 19.3025 81.1764 19.2886 81.1958 19.2799C81.2213 19.2726 81.2484 19.2718 81.2743 19.2777C81.3003 19.2835 81.324 19.2957 81.3433 19.3131C81.3615 19.3281 81.3749 19.3475 81.3821 19.3692C81.3893 19.3909 81.39 19.414 81.384 19.4361L81.3719 19.4522ZM83.3734 19.8589H81.5508V18.8737H83.3619L83.3734 19.8589Z" fill="#0068F5"/>
<path d="M80.6387 16.0801C80.6205 16.0801 80.5837 16.091 80.5996 16.1169C80.6156 16.1429 80.6508 16.1278 80.6651 16.1169C80.6794 16.106 80.6414 16.0998 80.6392 16.0837L80.6387 16.0801Z" fill="#0068F5"/>
<path d="M80.7305 17.3949L80.7382 17.3555C80.7328 17.368 80.7302 17.3814 80.7305 17.3949Z" fill="#0068F5"/>
<path d="M83.8665 11.5141C83.7389 11.4761 83.6006 11.4867 83.4812 11.5436C83.4326 11.5775 83.3993 11.6273 83.3878 11.6833C83.3764 11.7392 83.3878 11.7972 83.4196 11.8456C83.5022 11.9255 83.4576 12.1315 83.4746 12.215C83.4813 12.2802 83.4761 12.346 83.4592 12.4096C83.429 12.449 83.4774 12.5979 83.4515 12.6301C83.4356 12.6512 83.4248 12.6755 83.4201 12.7011C83.4153 12.7266 83.4167 12.7529 83.424 12.7779C83.4132 12.8099 83.4044 12.8425 83.3976 12.8755C83.3912 12.9287 83.3881 12.9822 83.3882 13.0358C83.3923 13.0992 83.3853 13.1629 83.3673 13.2241C83.3426 13.3181 83.3121 13.4106 83.276 13.5012C83.2419 13.5691 83.2903 13.6008 83.2066 13.7087C83.2066 13.7087 83.1725 13.8478 83.1516 13.9105C83.0877 13.9707 83.0292 14.0358 82.9766 14.1051C82.9766 14.1051 82.8748 14.2395 82.8291 14.3126C82.8291 14.3126 82.7911 14.3609 82.7191 14.474C82.7191 14.474 82.4945 14.5591 82.4577 14.6478C82.4406 14.6883 82.2447 14.749 82.1088 14.8621C82.0246 14.9013 81.9372 14.934 81.8474 14.9596C81.7676 14.9634 81.69 14.9853 81.6212 15.0234C81.5232 15.0418 81.4264 15.0652 81.3311 15.0935C81.3311 15.0935 81.2673 15.1095 81.2084 15.122C81.207 15.0595 81.2003 14.9972 81.1886 14.9357C81.2012 14.9056 81.2061 14.8731 81.2029 14.8408H81.2123C81.33 14.8213 81.4447 14.7878 81.5535 14.7412C81.6937 14.7326 81.827 14.6807 81.9327 14.5933C82.0713 14.5726 82.0779 14.5134 82.0779 14.5134C82.1431 14.4959 82.2065 14.4728 82.2672 14.4444C82.3443 14.4335 82.4186 14.2888 82.4186 14.2888C82.4395 14.2716 82.5193 14.1912 82.5193 14.1912C82.6294 14.1419 82.7207 13.9546 82.7482 13.9204C82.7885 13.861 82.8239 13.7987 82.8539 13.7341C82.9217 13.6015 82.9743 13.4623 83.0107 13.3191C83.046 13.2257 83.0706 13.1289 83.0839 13.0306C83.1153 12.8231 83.1285 12.559 83.1285 12.559C83.1257 12.4865 83.1301 12.4139 83.1417 12.3421C83.1259 12.2853 83.1172 12.227 83.1158 12.1683C83.1148 12.0242 83.1503 11.8819 83.2193 11.7532C83.3018 11.6303 83.1643 11.4938 83.0129 11.4845C82.8912 11.4795 82.7715 11.5147 82.6745 11.5841C82.5908 11.6235 82.4874 11.8072 82.571 11.8871C82.6547 11.967 82.6519 12.1335 82.669 12.2109C82.6816 12.2815 82.6902 12.3526 82.6948 12.4241C82.668 12.4735 82.6562 12.529 82.6607 12.5844C82.6572 12.626 82.6492 12.6672 82.6371 12.7074C82.627 12.7536 82.6248 12.8011 82.6305 12.848C82.6437 12.918 82.6525 12.9958 82.6525 12.9958C82.5688 13.0156 82.6106 13.2252 82.6106 13.2252C82.5474 13.3153 82.4957 13.4121 82.4566 13.5136C82.4214 13.5963 82.3778 13.6756 82.3261 13.7502C82.2951 13.7603 82.2663 13.7758 82.2414 13.7959C82.1374 13.8463 82.0509 13.9237 81.9921 14.019C81.9108 14.0494 81.8379 14.097 81.7791 14.158C81.7001 14.1701 81.6249 14.1986 81.559 14.2415C81.559 14.2415 81.2976 14.3733 81.253 14.3868C81.237 14.392 81.2203 14.3953 81.2035 14.3967C81.2056 14.2844 81.1999 14.1721 81.1864 14.0605C81.4233 14.0337 81.6486 13.9487 81.8396 13.814C81.9194 13.7341 81.8787 13.7144 81.9404 13.6968C82.002 13.6791 82.0708 13.497 82.1363 13.4374C82.1936 13.3488 82.2375 13.2531 82.2667 13.153C82.3245 13.0303 82.3564 12.8981 82.3608 12.7639C82.4417 12.6643 82.3399 12.5076 82.3399 12.5076C82.3399 12.5076 82.3608 12.3276 82.3608 12.2482C82.3608 12.1051 82.3739 11.9622 82.3999 11.8212C82.434 11.6832 82.4417 11.6043 82.2992 11.5551C82.1554 11.5077 81.9996 11.5039 81.8534 11.5442C81.7736 11.5836 81.592 11.7709 81.6707 11.8523C81.7635 11.9485 81.835 12.0613 81.8809 12.1839C81.9007 12.2638 81.9217 12.4895 81.9217 12.4895C81.893 12.5289 81.9349 12.5496 81.9349 12.5891V12.6628C81.9349 12.6628 81.8996 12.9222 81.8418 12.9621C81.7841 13.0021 81.8 13.0991 81.8 13.0991C81.7175 13.1188 81.6696 13.3066 81.6696 13.3066C81.6137 13.3648 81.5534 13.4191 81.4891 13.469C81.4058 13.5267 81.3052 13.5578 81.2018 13.5577L81.122 13.5723V13.4197C81.1289 13.367 81.1328 13.314 81.1336 13.261C81.1336 13.1811 81.0918 13.1722 81.0918 13.1722L81.1336 13.0835C81.1452 13.0777 81.1551 13.0692 81.1624 13.0589C81.1697 13.0486 81.1742 13.0367 81.1754 13.0244C81.1741 13.0107 81.1698 12.9975 81.1625 12.9855C81.1553 12.9736 81.1454 12.9633 81.1336 12.9554C81.144 12.8735 81.144 12.7908 81.1336 12.7089C81.1312 12.6616 81.1242 12.6145 81.1127 12.5683C81.127 12.4759 81.1215 12.3817 81.0967 12.2913C81.0662 12.2225 81.0615 12.146 81.0835 12.0744C81.1138 12.0153 81.2288 11.8352 81.2706 11.775C81.3124 11.7149 81.3515 11.5976 81.0422 11.498C80.9504 11.465 80.8511 11.455 80.754 11.4691C80.6569 11.4831 80.5652 11.5205 80.4881 11.5779C80.3846 11.6261 80.4253 11.775 80.4253 11.8373C80.4253 11.8996 80.6212 12.037 80.6212 12.0967C80.6212 12.1564 80.6003 12.2051 80.6003 12.2653C80.6003 12.3255 80.5888 12.3738 80.608 12.4023C80.608 12.4023 80.5376 12.4417 80.5376 12.4713C80.5376 12.5009 80.5783 12.5304 80.6003 12.5709C80.6224 12.6114 80.5888 12.6103 80.5888 12.6103C80.5888 12.6103 80.5288 12.6794 80.5376 12.7188C80.5464 12.7582 80.5585 12.8283 80.5992 12.8417C80.64 12.8552 80.5651 12.89 80.5992 12.9305C80.5736 12.9581 80.5592 12.9934 80.5585 13.0301C80.5693 13.0768 80.5944 13.1195 80.6306 13.153C80.6306 13.153 80.5679 13.1728 80.5783 13.2122C80.5605 13.2512 80.5498 13.2928 80.547 13.3352C80.5467 13.4175 80.5515 13.4998 80.5613 13.5816C80.4905 13.5789 80.4211 13.5623 80.3574 13.533C80.2938 13.5038 80.2373 13.4623 80.1914 13.4114C80.16 13.3624 80.1149 13.3224 80.061 13.2957C80.061 13.2957 80.0192 13.1074 79.9306 13.0882C79.9306 13.0882 79.9515 12.9886 79.8888 12.9491C79.826 12.9097 79.7881 12.7027 79.7881 12.7027C79.8052 12.6797 79.8156 12.6529 79.8183 12.6249C79.8183 12.5854 79.8277 12.573 79.7974 12.5336C79.7959 12.4179 79.8029 12.3023 79.8183 12.1875C79.8627 12.0642 79.9318 11.95 80.0219 11.8513C80.0395 11.8353 80.0535 11.8162 80.063 11.795C80.0725 11.7738 80.0775 11.7511 80.0775 11.7281C80.0775 11.7051 80.0725 11.6823 80.063 11.6611C80.0535 11.64 80.0395 11.6208 80.0219 11.6049L80.001 11.5888C79.8057 11.5332 79.5993 11.5219 79.3984 11.5556C79.2532 11.6038 79.1491 11.7034 79.2333 11.8202C79.308 11.9383 79.3527 12.0711 79.3638 12.2083C79.3638 12.2861 79.3847 12.4677 79.3847 12.4677C79.3668 12.5056 79.3593 12.5471 79.3629 12.5885C79.3666 12.6299 79.3813 12.6697 79.4056 12.7043C79.4204 12.8581 79.4588 13.0091 79.5195 13.1525C79.5811 13.2833 79.5663 13.399 79.623 13.4508C79.6797 13.5027 79.7534 13.6584 79.8178 13.6776C79.8822 13.6968 79.8387 13.7144 79.9212 13.7948C80.0875 13.9535 80.3084 14.0509 80.5442 14.0693C80.5396 14.0896 80.5396 14.1107 80.5442 14.131C80.5664 14.1606 80.5807 14.1948 80.586 14.2306C80.586 14.2504 80.5574 14.3022 80.5431 14.3749C80.5068 14.3661 80.4714 14.3541 80.4374 14.3391C80.3681 14.3105 80.1656 14.2161 80.1656 14.2161C80.0992 14.1757 80.0239 14.15 79.9455 14.1409C79.8909 14.0848 79.8222 14.0425 79.7457 14.0179C79.7083 13.9649 79.6645 13.9162 79.6153 13.8727C79.5993 13.8529 79.4755 13.73 79.4755 13.73C79.408 13.6528 79.3476 13.5704 79.295 13.4835C79.2525 13.3995 79.2009 13.3198 79.1409 13.2459C79.1409 13.2459 79.1618 12.9995 79.0781 12.9772C79.0576 12.9371 79.0503 12.892 79.0572 12.848C79.0651 12.8019 79.0651 12.755 79.0572 12.7089C79.0444 12.6688 79.0357 12.6277 79.0314 12.586C79.0314 12.5455 79.0446 12.5341 79.0105 12.4946C79.0091 12.4 79.0142 12.3054 79.0259 12.2114C79.0429 12.1315 78.9802 11.9058 79.06 11.8259C79.0772 11.8052 79.0899 11.7816 79.0974 11.7563C79.1048 11.731 79.1069 11.7045 79.1036 11.6784C79.1002 11.6524 79.0914 11.6272 79.0777 11.6043C79.064 11.5815 79.0456 11.5614 79.0237 11.5452C78.8946 11.4892 78.7484 11.4791 78.612 11.5167C78.4657 11.5649 78.3627 11.6645 78.4469 11.7813C78.5218 11.8997 78.5664 12.0329 78.5774 12.1704V12.381C78.5877 12.4538 78.5908 12.5272 78.5867 12.6005C78.5867 12.6005 78.6142 12.8236 78.6456 13.0316C78.6597 13.1298 78.6838 13.2264 78.7177 13.3201C78.7587 13.4313 78.8141 13.5372 78.8828 13.6356C78.9048 13.6615 78.9257 13.7269 78.9901 13.8177C79.016 13.8519 79.1205 14.0999 79.2278 14.1492L79.3467 14.2281C79.3467 14.2281 79.4353 14.3837 79.5118 14.3904C79.5665 14.4323 79.6278 14.4659 79.6934 14.4901C79.7162 14.52 79.7455 14.5451 79.7792 14.5638C79.813 14.5825 79.8504 14.5943 79.8893 14.5985C79.9219 14.6334 79.9621 14.6612 80.0073 14.68C80.0525 14.6987 80.1014 14.7079 80.1507 14.7069C80.2828 14.7635 80.4233 14.8004 80.5673 14.8164C80.5699 14.8391 80.5766 14.8612 80.5871 14.8818C80.5871 14.8818 80.5624 15.0333 80.5585 15.1282C80.4842 15.1194 80.3609 15.0924 80.3609 15.0924C80.267 15.0645 80.1714 15.0415 80.0748 15.0234C80.0186 14.9836 79.9546 14.9547 79.8866 14.9383C79.8056 14.9102 79.7281 14.8738 79.6554 14.8299C79.5157 14.7152 79.312 14.6353 79.2961 14.5985C79.2581 14.5072 79.0947 14.4641 79.0947 14.4641C79.0364 14.3806 78.9656 14.3055 78.8844 14.241C78.8475 14.1861 78.8037 14.1356 78.754 14.0906C78.7067 14.0222 78.6631 13.9515 78.6236 13.8789C78.603 13.8128 78.5881 13.7454 78.579 13.6771C78.5337 13.6172 78.5029 13.5486 78.4888 13.4763C78.4414 13.3678 78.3644 13.2003 78.3644 13.2003C78.3528 13.1343 78.3496 13.0672 78.355 13.0005C78.3268 12.9605 78.306 12.9163 78.2934 12.8698C78.2869 12.8243 78.2869 12.7782 78.2934 12.7328C78.3034 12.7156 78.3074 12.6959 78.3048 12.6764C78.3023 12.6569 78.2933 12.6387 78.2791 12.6244C78.2516 12.5922 78.2659 12.5445 78.2373 12.5014C78.2177 12.4045 78.2085 12.3059 78.2097 12.2072C78.2268 12.1273 78.1624 11.9016 78.245 11.8217C78.2791 11.78 78.2944 11.7272 78.2876 11.6749C78.2808 11.6226 78.2524 11.5749 78.2087 11.5421C78.0872 11.4978 77.9526 11.4978 77.8311 11.5421C77.806 11.5481 77.7824 11.5588 77.7617 11.5735C77.741 11.5882 77.7236 11.6066 77.7105 11.6277C77.6974 11.6488 77.6888 11.6721 77.6854 11.6963C77.6819 11.7206 77.6835 11.7452 77.6902 11.7688C77.6976 11.7944 77.7105 11.8183 77.7282 11.8389C77.7803 11.9408 77.7951 12.0561 77.7701 12.1668C77.7701 12.2466 77.7634 12.3489 77.7634 12.3489C77.7634 12.3489 77.77 12.4978 77.7634 12.6373C77.7634 12.6373 77.7789 12.7997 77.8102 13.0067C77.8182 13.0864 77.8322 13.1655 77.852 13.2433C77.8741 13.3232 77.868 13.5318 77.9148 13.592C77.9454 13.6552 77.9813 13.7161 78.0221 13.7741C78.048 13.8062 78.0914 14.0366 78.2087 14.1253C78.241 14.2427 78.3071 14.3493 78.3996 14.4335C78.3996 14.4335 78.491 14.5824 78.53 14.5762C78.53 14.5762 78.6214 14.7448 78.6775 14.7562C78.6775 14.7562 78.7259 14.9248 78.8641 14.9446C78.914 15.0258 78.9949 15.0861 79.0903 15.1132C79.1207 15.1541 79.1596 15.189 79.2044 15.2157C79.2493 15.2424 79.2993 15.2605 79.3517 15.2688C79.3517 15.2688 79.3071 15.3835 79.5674 15.3835L79.5949 15.3944C79.6393 15.4269 79.6921 15.4476 79.7479 15.4546C79.8468 15.4963 79.9509 15.5261 80.0577 15.5433L80.3059 15.5703V15.8401C80.3059 15.8401 80.4363 15.8686 80.4363 15.9386C80.4363 16.0087 80.4363 16.0362 80.4859 16.0481C80.4859 16.0481 80.5277 16.0766 80.4974 16.1467C80.4764 16.1755 80.4646 16.2093 80.4633 16.2442C80.4291 16.2615 80.4011 16.2879 80.3827 16.3201C80.3643 16.3523 80.3563 16.3889 80.3598 16.4253H80.2877V16.6385H80.4182C80.4259 16.6536 80.4298 16.6701 80.4297 16.6868C80.4297 16.72 80.4611 16.8357 80.4391 16.8668C80.4171 16.8979 80.3774 16.9358 80.3565 16.9643C80.2625 17.032 80.1866 17.1196 80.1351 17.22C80.0835 17.3204 80.0578 17.4308 80.0599 17.5423C80.0484 17.6497 79.9058 17.6793 79.7726 17.7187H81.9128C81.7587 17.6793 81.696 17.6497 81.6845 17.5423C81.6877 17.4306 81.6626 17.3197 81.6112 17.219C81.5598 17.1183 81.4836 17.0306 81.3889 16.9633C81.368 16.9348 81.3262 16.8943 81.3064 16.8658C81.2866 16.8372 81.3141 16.7179 81.3141 16.6857C81.3132 16.6686 81.3172 16.6516 81.3257 16.6365H81.4561V16.4289H81.384C81.3879 16.3926 81.3801 16.356 81.3616 16.3239C81.3432 16.2918 81.3149 16.2657 81.2805 16.2489C81.2805 16.2145 81.2706 16.1808 81.2519 16.1513C81.2167 16.0797 81.2613 16.0517 81.2613 16.0517C81.3108 16.0393 81.3108 16.0123 81.3108 15.9433C81.3108 15.8743 81.4478 15.8437 81.4478 15.8437V15.5692C81.5513 15.5448 81.6971 15.5054 81.7444 15.4966C81.8176 15.4841 81.89 15.468 81.9613 15.4483C82.0317 15.4276 82.0229 15.3882 82.0917 15.3882C82.3437 15.3882 82.3531 15.3057 82.3531 15.3057C82.4009 15.2989 82.4459 15.2805 82.4839 15.2524C82.5219 15.2243 82.5515 15.1874 82.5699 15.1453C82.6912 15.1148 82.799 15.0489 82.8781 14.957C82.9942 14.9399 83.0531 14.7796 83.0531 14.7796C83.1081 14.7687 83.2347 14.5995 83.2347 14.5995C83.2765 14.5995 83.3338 14.4579 83.3338 14.4579C83.4328 14.3538 83.4996 14.226 83.5269 14.0885C83.6458 14.0008 83.6326 13.8841 83.6574 13.842C83.7023 13.7646 83.7356 13.6817 83.7564 13.5956C83.8005 13.4799 83.8311 13.3601 83.8478 13.2381C83.8688 13.1597 83.8828 13.0796 83.8896 12.9989C83.9199 12.7914 83.938 12.6295 83.938 12.6295C83.9331 12.537 83.9222 12.4448 83.9055 12.3535V12.1714C83.8795 12.0606 83.8938 11.9447 83.9463 11.8425C83.9644 11.8203 83.9777 11.7949 83.9853 11.7679C83.993 11.7408 83.9949 11.7126 83.9909 11.6849C83.9869 11.6571 83.9771 11.6304 83.9621 11.6062C83.947 11.5821 83.9271 11.561 83.9033 11.5442C83.8923 11.5322 83.88 11.5214 83.8665 11.512V11.5141ZM82.8209 13.7066C82.7944 13.7523 82.7504 13.8104 82.7108 13.7632C82.6712 13.716 82.6299 13.7346 82.6167 13.7066C82.6035 13.6786 82.6613 13.6724 82.6717 13.633C82.6822 13.5935 82.7372 13.6573 82.7752 13.6615C82.8132 13.6656 82.833 13.6833 82.8209 13.7066ZM82.986 13.0109C82.9715 13.0182 82.9553 13.0221 82.9389 13.0221C82.9225 13.0221 82.9063 13.0182 82.8918 13.0109C82.7988 12.959 82.9023 12.8879 82.9282 12.82C82.9229 12.7861 82.9256 12.7516 82.9359 12.7188C82.9359 12.71 82.9359 12.6928 82.9502 12.6902C82.9595 12.6862 82.97 12.6852 82.98 12.6875C82.99 12.6897 82.9989 12.6951 83.0052 12.7027C83.0423 12.7476 83.0606 12.8038 83.0567 12.8605C83.0529 12.9173 83.0271 12.9708 82.9843 13.0109H82.986ZM82.7427 11.7973C82.8008 11.7911 82.8583 11.7812 82.915 11.7678C82.9254 11.7689 82.936 11.7674 82.9456 11.7635C82.9553 11.7596 82.9637 11.7534 82.97 11.7455C82.9843 11.7232 83.0041 11.6765 83.0327 11.6593C83.0456 11.6533 83.0605 11.6523 83.0742 11.6564C83.0878 11.6606 83.0992 11.6697 83.1059 11.6816V11.6894C83.1177 11.7277 83.1177 11.7684 83.1059 11.8067C83.0927 11.8487 83.0548 11.8845 83.0404 11.9296C83.0337 11.9704 83.0337 12.0119 83.0404 12.0526C83.0308 12.1914 83.0387 12.3307 83.0641 12.4677C83.0661 12.484 83.0633 12.5005 83.0561 12.5155C83.049 12.5305 83.0377 12.5433 83.0234 12.5528C82.9662 12.5795 82.9029 12.5927 82.839 12.5912C82.817 12.5912 82.8115 12.5652 82.817 12.5455C82.8313 12.5346 82.8484 12.5294 82.8577 12.5123C82.8661 12.4904 82.8713 12.4675 82.8731 12.4443C82.8895 12.3608 82.8776 12.2746 82.839 12.1979C82.8565 12.2004 82.8744 12.1964 82.8888 12.1868C82.9032 12.1771 82.913 12.1624 82.9161 12.146C82.9463 12.0583 82.9502 11.9385 82.8638 11.8866C82.8186 11.8719 82.7722 11.8608 82.7251 11.8534C82.6888 11.8534 82.7069 11.8077 82.7405 11.8015L82.7427 11.7973ZM82.7036 13.124H82.7218C82.7273 13.124 82.7455 13.1385 82.7427 13.124C82.8272 13.1144 82.9124 13.136 82.9805 13.1842C82.9502 13.262 82.9595 13.3554 82.9007 13.4156C82.8731 13.4415 82.8104 13.4156 82.7779 13.3959C82.7455 13.3761 82.7438 13.3403 82.7686 13.3305C82.8286 13.3019 82.8704 13.2615 82.8407 13.2075C82.811 13.1536 82.7427 13.221 82.7103 13.1816C82.7039 13.1735 82.7005 13.1638 82.7005 13.1538C82.7005 13.1438 82.7039 13.1341 82.7103 13.1261L82.7036 13.124ZM82.6123 13.5033C82.6987 13.4612 82.7911 13.5266 82.8737 13.5525C82.8814 13.5525 82.8974 13.5723 82.8896 13.5785C82.8761 13.5881 82.8596 13.5933 82.8426 13.5933C82.8256 13.5933 82.8091 13.5881 82.7955 13.5785C82.7405 13.5463 82.6805 13.5525 82.6305 13.5219C82.6228 13.5219 82.5925 13.5131 82.6068 13.5033H82.6123ZM82.4087 13.9406C82.4296 13.9297 82.4637 13.9406 82.4885 13.9173L82.5028 13.9074C82.538 13.9074 82.5121 13.9074 82.5331 13.8929C82.554 13.8784 82.5094 13.8104 82.5589 13.8042C82.5889 13.8037 82.6186 13.8105 82.6451 13.8238C82.6716 13.8372 82.694 13.8566 82.7103 13.8804C82.7211 13.8934 82.7271 13.9095 82.7271 13.9261C82.7271 13.9427 82.7211 13.9587 82.7103 13.9718C82.6932 14.0013 82.6464 13.9987 82.6189 14.021C82.5914 14.0434 82.6018 14.0693 82.5809 14.0838C82.56 14.0983 82.5419 14.1035 82.5391 14.0947C82.5363 14.0859 82.5066 14.075 82.4973 14.0579C82.4879 14.0408 82.4423 14.0293 82.4268 14.0122C82.4114 13.9951 82.363 13.9666 82.4048 13.9406H82.4087ZM82.2128 14.1378C82.2282 14.1245 82.2473 14.1156 82.2678 14.1118C82.2964 14.1009 82.2678 14.0797 82.2678 14.0553C82.2772 14.0553 82.2678 14.0408 82.2772 14.0382C82.3322 14.0174 82.3542 14.0864 82.3779 14.1258V14.1642C82.388 14.173 82.3957 14.184 82.4005 14.1962C82.4053 14.2083 82.407 14.2214 82.4054 14.2343C82.4004 14.2418 82.3931 14.2478 82.3845 14.2514C82.3245 14.2685 82.2959 14.2031 82.254 14.1751H82.2238C82.2144 14.1751 82.1963 14.1528 82.2078 14.1419L82.2128 14.1378ZM82.0521 14.3593C82.0702 14.337 82.0675 14.3764 82.1071 14.3593L82.128 14.3458C82.2117 14.3458 82.1539 14.282 82.1698 14.2229C82.2183 14.2722 82.2733 14.3349 82.2469 14.3967C82.2298 14.4371 82.1671 14.4371 82.1253 14.4522C82.0834 14.4672 82.0207 14.3894 82.0559 14.3484L82.0521 14.3593ZM79.3957 11.8539C79.3856 11.8418 79.3811 11.8264 79.3831 11.8111C79.385 11.7959 79.3933 11.782 79.4061 11.7724C79.4118 11.7677 79.4186 11.7643 79.426 11.7626C79.5219 11.7327 79.6249 11.7296 79.7226 11.7538C79.7534 11.7553 79.7841 11.7598 79.8139 11.7673C79.8365 11.7708 79.8567 11.7826 79.8702 11.8001C79.8837 11.8175 79.8894 11.8393 79.886 11.8606V11.8731C79.8574 11.9385 79.8024 11.9903 79.771 12.0552C79.733 12.1403 79.7842 12.2352 79.771 12.3286C79.7658 12.3695 79.7471 12.4079 79.7174 12.4382C79.6878 12.4684 79.6488 12.4891 79.6059 12.4972C79.5773 12.4972 79.5443 12.4972 79.53 12.4775C79.47 12.3826 79.6098 12.3738 79.645 12.3089C79.6543 12.2918 79.6565 12.2633 79.645 12.257C79.6032 12.2065 79.5663 12.1525 79.5349 12.0957C79.5008 12.0438 79.5509 11.9727 79.5113 11.9307C79.4716 11.8887 79.4331 11.8876 79.4056 11.8555L79.3957 11.8539ZM79.4452 12.6472V12.6233C79.5051 12.6075 79.5677 12.6025 79.6296 12.6088H79.5877C79.6532 12.6176 79.7182 12.5891 79.7798 12.6233C79.7864 12.6233 79.7864 12.643 79.7798 12.6477C79.733 12.697 79.6697 12.6602 79.6048 12.6736C79.5399 12.6871 79.4947 12.6996 79.448 12.6477L79.4452 12.6472ZM79.7325 12.8874C79.7325 12.9305 79.6439 12.9357 79.602 12.944V12.9133C79.6571 12.9133 79.7325 12.8334 79.7407 12.8936L79.7325 12.8874ZM79.6147 13.1214C79.6101 13.1238 79.6049 13.1251 79.5996 13.1251C79.5943 13.1251 79.5891 13.1238 79.5844 13.1214C79.5844 13.097 79.5646 13.0757 79.5844 13.0534C79.5967 13.0384 79.6143 13.0279 79.634 13.0239C79.7031 13.0043 79.7763 13.0013 79.8469 13.015C79.8745 13.015 79.9097 13.041 79.8849 13.0555C79.8051 13.1074 79.6978 13.0394 79.6235 13.1183L79.6147 13.1214ZM79.7952 13.3984C79.7743 13.3984 79.7649 13.4306 79.7561 13.427C79.7248 13.4145 79.7561 13.3938 79.7561 13.3668C79.7743 13.3668 79.7716 13.3274 79.7903 13.3326C79.7873 13.3067 79.7947 13.2807 79.8112 13.2597C79.8276 13.2387 79.8517 13.2244 79.8789 13.2195C79.8927 13.2169 79.9069 13.2169 79.9207 13.2195C79.9283 13.2213 79.9354 13.2246 79.9417 13.2291C79.9479 13.2336 79.9531 13.2392 79.957 13.2456C79.9609 13.2521 79.9634 13.2592 79.9644 13.2665C79.9653 13.2739 79.9647 13.2813 79.9625 13.2885C79.9477 13.3197 79.9249 13.3469 79.896 13.3675C79.8672 13.3882 79.8333 13.4017 79.7974 13.4067L79.7952 13.3984ZM79.9053 13.5463C79.8816 13.5178 79.9157 13.4747 79.951 13.4488C79.9862 13.4228 80.0241 13.3798 80.0726 13.4145C80.0803 13.4145 80.0726 13.4441 80.0726 13.4602C80.0583 13.5121 79.9983 13.5033 79.9669 13.538C79.9591 13.5467 79.9482 13.5524 79.9362 13.554C79.9243 13.5556 79.9121 13.5531 79.902 13.5468L79.9053 13.5463ZM80.5585 13.9541C80.4149 13.954 80.2739 13.9182 80.1496 13.8503C80.0517 13.8047 79.9433 13.7274 80.0049 13.6236C80.0313 13.578 80.0638 13.6558 80.0913 13.6926C80.2013 13.854 80.4022 13.8441 80.5657 13.924C80.565 13.9339 80.565 13.9437 80.5657 13.9536L80.5585 13.9541ZM78.6285 11.8342C78.6228 11.82 78.6218 11.8046 78.6255 11.7899C78.6292 11.7752 78.6376 11.7619 78.6495 11.7517H78.6638C78.7433 11.7503 78.8227 11.7446 78.9015 11.7346C78.9147 11.7346 78.9642 11.7605 78.9736 11.7605C78.9557 11.8241 78.9456 11.8893 78.9433 11.9551C78.9314 12.0577 78.9345 12.1614 78.9527 12.2633C78.9541 12.3455 78.951 12.4278 78.9433 12.5097H78.934C78.9224 12.5725 78.934 12.5097 78.8998 12.5662C78.8939 12.5744 78.8852 12.5803 78.8751 12.5829C78.8651 12.5856 78.8543 12.5848 78.8448 12.5808C78.8303 12.5751 78.8182 12.5649 78.8106 12.5519C78.803 12.5389 78.8003 12.5238 78.803 12.5092C78.8371 12.3862 78.8619 12.3945 78.8476 12.27C78.8445 12.2459 78.8363 12.2226 78.8236 12.2015C78.8108 12.1803 78.7937 12.1618 78.7733 12.147C78.76 12.1383 78.7485 12.1274 78.7392 12.1149C78.7089 12.0521 78.7392 11.9769 78.7127 11.9151C78.6968 11.8757 78.6489 11.8632 78.628 11.8264L78.6285 11.8342ZM78.8366 12.6965C78.7815 12.7089 78.7177 12.7224 78.6715 12.6705V12.6446C78.7313 12.6284 78.794 12.6238 78.8558 12.6311H78.814C78.8795 12.6399 78.9444 12.6114 79.0099 12.6446C79.0118 12.6487 79.0128 12.6531 79.0128 12.6576C79.0128 12.662 79.0118 12.6664 79.0099 12.6705C78.9642 12.7198 78.896 12.683 78.836 12.6965H78.8366ZM78.8811 13.0021C78.9362 12.9886 78.9257 12.9305 78.9505 12.9087C78.9951 12.8656 79.0275 12.9408 79.0352 12.9803C79.0534 13.0591 78.9593 13.0778 78.89 13.0539C78.874 13.0467 78.8547 13.0109 78.8822 13.0021H78.8811ZM79.0116 13.4617C79.0073 13.4644 79.0026 13.4662 78.9976 13.467C78.9925 13.4678 78.9874 13.4676 78.9825 13.4665C78.9776 13.4653 78.9729 13.4632 78.969 13.4602C78.965 13.4572 78.9617 13.4535 78.9593 13.4493C78.9593 13.4322 78.967 13.4125 78.9763 13.4171C79.0077 13.4171 79.0402 13.4379 79.0171 13.4664L79.0116 13.4617ZM78.9736 13.6304C78.9527 13.6392 78.9318 13.6215 78.9147 13.6106C78.8976 13.5998 78.9147 13.5909 78.9147 13.5847C78.953 13.5632 78.9939 13.5458 79.0363 13.5328C79.0432 13.531 79.0504 13.531 79.0572 13.5328C79.0936 13.5811 79.0165 13.6127 78.9747 13.6262L78.9736 13.6304ZM79.0363 13.8166C79.0248 13.8166 78.9945 13.7959 79.0088 13.7736C79.0231 13.7512 79.0534 13.7538 79.0781 13.7414V13.7243C79.0926 13.7178 79.1088 13.7156 79.1247 13.718C79.1405 13.7204 79.1552 13.7272 79.1668 13.7376C79.1784 13.7481 79.1864 13.7615 79.1897 13.7763C79.193 13.7911 79.1915 13.8065 79.1853 13.8204C79.1792 13.8344 79.1687 13.8462 79.1552 13.8545C79.1418 13.8627 79.126 13.8669 79.11 13.8664C79.094 13.866 79.0785 13.861 79.0655 13.8522C79.0525 13.8433 79.0428 13.8309 79.0374 13.8166H79.0363ZM81.1099 15.1308C81.1046 15.134 81.0989 15.1364 81.0929 15.1381C81.0591 15.1365 81.0253 15.139 80.9922 15.1453C80.9779 15.143 80.9639 15.1394 80.9503 15.1344C80.8782 15.1085 80.8903 15.0115 80.8617 14.9446C80.8617 14.9248 80.8265 14.9176 80.8106 14.9077C80.761 14.8854 80.6955 14.8854 80.6592 14.834C80.6746 14.834 80.6851 14.8429 80.701 14.8429C80.854 14.8605 81.0081 14.8683 81.1622 14.8662C81.1507 14.9523 81.2134 15.0779 81.111 15.1308H81.1099ZM81.1985 14.6753C81.2429 14.6754 81.287 14.6684 81.3289 14.6545C81.3785 14.6384 81.4269 14.6322 81.4742 14.6125C81.6168 14.5525 81.7547 14.4831 81.887 14.405C81.9079 14.405 82.0058 14.5087 81.98 14.5279C81.8313 14.5982 81.6786 14.6607 81.5227 14.7152C81.4217 14.7575 81.3128 14.7806 81.2024 14.7832C80.9124 14.7993 81.0846 14.7733 80.8106 14.7313C80.8931 14.6364 81.2024 14.6929 81.2024 14.6722L81.1985 14.6753ZM82.0554 13.5048C82.0517 13.5094 82.047 13.5133 82.0416 13.5162C82.0363 13.5191 82.0304 13.5209 82.0243 13.5216C82.0181 13.5223 82.012 13.5218 82.006 13.5202C82.0001 13.5185 81.9946 13.5158 81.9899 13.5121C81.9877 13.5119 81.9857 13.5111 81.984 13.5098C81.9823 13.5085 81.9811 13.5068 81.9805 13.5048C81.9727 13.4969 81.9677 13.487 81.9662 13.4763C81.9662 13.4617 81.9453 13.4431 81.9481 13.4405C81.9937 13.4036 82.0488 13.401 82.0917 13.358C82.128 13.4161 82.0917 13.4617 82.0565 13.5048H82.0554ZM82.1066 13.2252C82.0818 13.2163 82.0295 13.193 81.9926 13.1759C81.9558 13.1587 81.9926 13.139 82.0058 13.1338C82.0438 13.1006 82.0884 13.1079 82.1115 13.0648C82.1346 13.0218 82.1209 12.9912 82.1506 12.9823C82.1847 13.0047 82.2447 12.9912 82.2447 13.0218C82.2447 13.1017 82.1792 13.2495 82.1077 13.2252H82.1066ZM82.287 12.9014C82.2755 12.9014 82.27 12.9102 82.2661 12.9102C82.2034 12.9102 82.1561 12.8672 82.0923 12.8583C82.0829 12.8583 82.0477 12.8583 82.0609 12.8324C82.0741 12.8065 82.1302 12.793 82.1588 12.7696C82.1875 12.7463 82.254 12.7842 82.2595 12.8412C82.2685 12.8483 82.2768 12.8561 82.2843 12.8646C82.2909 12.8734 82.2843 12.8879 82.2843 12.903L82.287 12.9014ZM82.3316 12.6155C82.3498 12.6524 82.3316 12.7385 82.3058 12.7385C82.2117 12.7053 82.0796 12.683 82.1137 12.6436C82.1645 12.6496 82.2156 12.6525 82.2667 12.6524C82.2865 12.6254 82.3074 12.5688 82.3333 12.6166L82.3316 12.6155ZM81.8754 11.8892C81.8676 11.8816 81.8632 11.8715 81.8632 11.8609C81.8632 11.8503 81.8676 11.8402 81.8754 11.8326C81.88 11.8293 81.8852 11.8268 81.8908 11.8254C82.0212 11.7994 82.1429 11.8254 82.27 11.8056C82.3168 11.8056 82.3041 11.8342 82.3041 11.8389C82.3041 11.9141 82.2155 11.9903 82.2573 12.0666C82.3212 12.1896 82.2849 12.3131 82.3124 12.436C82.3154 12.4547 82.3137 12.4738 82.3076 12.4918C82.3015 12.5098 82.2911 12.5262 82.2772 12.5398C82.2133 12.6 82.1087 12.5683 82.0405 12.5201C82.0064 12.4967 82.0312 12.4599 82.0746 12.4511C82.1018 12.45 82.1288 12.4471 82.1555 12.4422C82.1829 12.423 82.2031 12.396 82.213 12.3652C82.2229 12.3344 82.222 12.3014 82.2106 12.271C82.1952 12.2228 82.1297 12.2228 82.0801 12.228C82.1269 12.2119 82.1952 12.1491 82.1478 12.1169C82.1005 12.0848 82.0592 12.0884 82.0251 12.0651C81.991 12.0417 82.0031 12.0132 81.9833 11.9852C81.9635 11.9571 81.909 11.9333 81.876 11.8938L81.8754 11.8892ZM81.6492 13.579C81.6756 13.5702 81.7147 13.579 81.7356 13.5728C81.7658 13.5487 81.7937 13.5223 81.8193 13.4939C81.8534 13.4607 81.9106 13.5027 81.9343 13.5458C81.9387 13.5564 81.94 13.568 81.9379 13.5792C81.9359 13.5905 81.9306 13.601 81.9227 13.6096C81.9018 13.633 81.8886 13.6677 81.8639 13.6812C81.8398 13.6947 81.815 13.707 81.7896 13.718C81.7153 13.7476 81.6525 13.6698 81.6355 13.6049C81.6355 13.5994 81.6371 13.594 81.6401 13.5892C81.6431 13.5845 81.6474 13.5806 81.6525 13.578L81.6492 13.579ZM81.1617 13.8903C81.2283 13.8717 81.2934 13.8487 81.3565 13.8213C81.3906 13.8042 81.4297 13.772 81.4665 13.7559C81.5034 13.7398 81.5216 13.704 81.5551 13.7191C81.6102 13.7414 81.6245 13.8166 81.5904 13.842C81.4691 13.9221 81.3303 13.9753 81.1842 13.9977C81.2051 13.9977 80.7489 14.0989 80.7203 13.9214C80.8709 13.9434 81.0249 13.9337 81.171 13.8929L81.1617 13.8903ZM80.9724 13.0602C81.0169 13.0171 80.9465 12.9886 80.9724 12.9678C81.0351 12.9196 81.0901 13.0654 81.0587 13.1105C81.0076 13.1821 80.898 13.151 80.8116 13.1427C80.7858 13.1427 80.7649 13.0944 80.7907 13.0861C80.851 13.0759 80.9124 13.0729 80.9734 13.0773C80.973 13.0719 80.973 13.0666 80.9734 13.0612L80.9724 13.0602ZM81.0444 12.82C80.9419 12.8366 80.8371 12.8366 80.7346 12.82C80.7269 12.82 80.7021 12.7831 80.7175 12.7681C80.7453 12.7522 80.7763 12.7419 80.8085 12.7379C80.8407 12.7339 80.8734 12.7362 80.9047 12.7447C80.9635 12.7447 81.0698 12.7338 81.0455 12.8148L81.0444 12.82ZM80.8887 13.3767C80.8833 13.3263 80.8928 13.2754 80.9162 13.2298C80.9305 13.2101 80.9751 13.2075 81.0026 13.2101C81.0301 13.2127 81.029 13.2423 81.029 13.2568C81.0367 13.3528 81.0841 13.4643 81.029 13.5328C80.974 13.6013 80.8172 13.5723 80.7115 13.5474C80.6763 13.5385 80.6669 13.4737 80.6933 13.4612C80.763 13.4375 80.831 13.4096 80.8969 13.3777L80.8887 13.3767ZM80.6339 11.8233C80.6262 11.8233 80.5998 11.801 80.6141 11.7802H80.6521C80.7385 11.7558 80.7671 11.7937 80.8386 11.7678C80.8645 11.7553 80.8777 11.7247 80.9091 11.7247C80.9091 11.6988 80.9366 11.6962 80.9393 11.6765C80.9428 11.6425 80.9396 11.6082 80.93 11.5753C80.96 11.5774 80.9892 11.5852 81.0159 11.5982C81.0426 11.6113 81.0663 11.6292 81.0854 11.6511C81.1046 11.6729 81.1189 11.6982 81.1274 11.7254C81.136 11.7526 81.1387 11.7811 81.1352 11.8093C81.1366 11.8194 81.1366 11.8297 81.1352 11.8399C81.1187 11.8823 81.0908 11.92 81.0543 11.9494C81.0156 11.9972 80.9921 12.0544 80.9867 12.1143C80.9525 12.2513 81.0598 12.3706 81.0417 12.5087C81.0368 12.5548 81.0157 12.5981 80.9817 12.6316C80.9687 12.6401 80.9532 12.6446 80.9374 12.6446C80.9216 12.6446 80.9061 12.6401 80.8931 12.6316C80.8331 12.6072 80.7506 12.6461 80.7143 12.5678C80.7559 12.5644 80.7959 12.5504 80.8299 12.5274C80.8639 12.5044 80.8906 12.4732 80.9074 12.4371C80.9345 12.3569 80.9345 12.2708 80.9074 12.1906C80.8815 12.0869 80.9228 11.9763 80.8645 11.8985C80.8188 11.842 80.7104 11.8492 80.6317 11.8171L80.6339 11.8233ZM80.6053 14.0921C80.6146 14.0833 80.6394 14.0921 80.6521 14.0921C80.6624 14.0903 80.6731 14.0903 80.6834 14.0921C80.7566 14.0921 80.8271 14.102 80.8584 14.102H80.8964C80.9726 14.12 81.0529 14.1157 81.1264 14.0895C81.1473 14.1738 81.1473 14.2615 81.1264 14.3458C81.1199 14.3708 81.1041 14.3927 81.0819 14.4076H80.9168C80.8342 14.3375 80.8216 14.214 80.7219 14.1539C80.6937 14.143 80.6638 14.1363 80.6334 14.1341C80.6202 14.1341 80.5866 14.1196 80.6047 14.102L80.6053 14.0921ZM79.3181 14.0921C79.3181 14.0921 79.2895 14.0921 79.2856 14.0688C79.2812 14.0505 79.2845 14.0313 79.2948 14.0153C79.305 13.9992 79.3215 13.9875 79.3407 13.9826H79.3566C79.3505 13.9774 79.3434 13.9732 79.3357 13.9702C79.3764 13.9614 79.4205 13.9334 79.4496 13.9458C79.4788 13.9583 79.3649 14.1144 79.3192 14.0947L79.3181 14.0921ZM79.6213 14.2151C79.6213 14.2151 79.6004 14.2322 79.5966 14.2374C79.5919 14.2571 79.5827 14.2756 79.5696 14.2916C79.5564 14.3076 79.5397 14.3206 79.5206 14.3297C79.4854 14.3469 79.4485 14.2955 79.4606 14.2581C79.4689 14.2457 79.4791 14.2345 79.4909 14.2249C79.5459 14.1855 79.5916 14.0823 79.6516 14.1424C79.662 14.1559 79.6318 14.1907 79.623 14.2161L79.6213 14.2151ZM79.6593 14.4034C79.6477 14.3702 79.6752 14.3515 79.7066 14.3469H79.678C79.733 14.2976 79.7787 14.2 79.8607 14.2063C79.8311 14.2947 79.7912 14.3798 79.7418 14.46C79.7116 14.502 79.6741 14.4413 79.662 14.4045L79.6593 14.4034ZM80.5635 14.7189C80.3225 14.7031 80.088 14.6383 79.8761 14.529C79.8563 14.5202 79.8211 14.4906 79.8266 14.4662C79.8321 14.4418 79.8734 14.433 79.897 14.4454C80.0779 14.5634 80.2849 14.641 80.5024 14.6722H80.5574C80.6515 14.6883 80.6229 14.6966 80.6229 14.7043C80.6229 14.7121 80.6009 14.7266 80.5629 14.7152L80.5635 14.7189ZM77.8889 12.5107C77.999 12.4454 77.9753 12.2991 78.0133 12.1927H78.0226C78.0342 12.1719 78.0474 12.1507 78.0606 12.131C78.1035 12.0656 78.0606 12.008 78.0265 11.9488C77.9924 11.8897 77.9467 11.9084 77.9192 11.8736C77.8917 11.8389 77.9373 11.8119 77.961 11.8056C78.0222 11.7844 78.0766 11.7486 78.119 11.7019C78.1388 11.6848 78.1608 11.7263 78.1531 11.7538V11.7439C78.1269 11.8101 78.1166 11.881 78.1228 11.9514C78.1452 12.1566 78.1385 12.3637 78.103 12.5673C78.0364 12.5808 77.8939 12.6192 77.89 12.5092L77.8889 12.5107ZM77.9819 12.9901C78.0083 12.9533 78.0667 12.9336 78.1123 12.8988C78.158 12.8641 78.136 12.7759 78.18 12.7302C78.1894 12.7167 78.2048 12.739 78.2191 12.7364C78.2325 12.8184 78.2294 12.902 78.2097 12.9829C78.1877 13.0249 78.0727 13.0431 78.0793 13.0456L78.0403 13.0368C78.0518 13.0368 77.9605 13.0368 77.988 12.9912L77.9819 12.9901ZM78.0733 13.5608C78.0942 13.5608 78.0903 13.5266 78.1151 13.5411C78.1151 13.4675 78.174 13.4929 78.1855 13.4498C78.1971 13.4067 78.1569 13.387 78.1266 13.3699C78.1266 13.3699 78.1266 13.3554 78.136 13.3528C78.15 13.349 78.1647 13.3489 78.1788 13.3523C78.1928 13.3558 78.2056 13.3628 78.2158 13.3725C78.2252 13.385 78.2461 13.3933 78.2395 13.413C78.2785 13.413 78.2747 13.4524 78.284 13.4721C78.2942 13.4906 78.2996 13.5111 78.3 13.532C78.3004 13.5528 78.2956 13.5734 78.2861 13.5923C78.2767 13.6111 78.2627 13.6276 78.2453 13.6405C78.228 13.6534 78.2077 13.6624 78.1861 13.6667C78.1847 13.6578 78.1821 13.649 78.1784 13.6407C78.1355 13.6138 78.0683 13.6272 78.0749 13.5619L78.0733 13.5608ZM78.1558 13.9302C78.1652 13.9214 78.1558 13.9069 78.1558 13.9017C78.2422 13.8524 78.3336 13.8265 78.4172 13.7787C78.4315 13.7699 78.4618 13.7616 78.4761 13.7787C78.4799 13.7871 78.4809 13.7963 78.4788 13.8052C78.4767 13.814 78.4717 13.822 78.4646 13.828C78.3886 13.9079 78.2554 13.9967 78.1498 13.9277L78.1558 13.9302ZM78.3759 14.2862C78.3518 14.2789 78.3304 14.2652 78.3143 14.2467C78.2983 14.2234 78.3143 14.2063 78.3429 14.2C78.3738 14.1969 78.405 14.1969 78.4359 14.2C78.4662 14.2 78.4739 14.1715 78.5014 14.157C78.5254 14.141 78.5525 14.1297 78.5812 14.1238C78.5812 14.1347 78.5994 14.1409 78.5906 14.1523C78.5289 14.2213 78.4728 14.3209 78.3776 14.2929L78.3759 14.2862ZM78.453 14.4205C78.4321 14.392 78.4948 14.3723 78.5251 14.3578C78.5553 14.3432 78.6137 14.3095 78.6621 14.2862C78.6645 14.3174 78.6562 14.3484 78.6385 14.3749C78.6175 14.4117 78.5834 14.4268 78.5454 14.4511C78.5075 14.4755 78.4722 14.4449 78.4541 14.4216L78.453 14.4205ZM78.8382 14.6281C78.8041 14.6452 78.8041 14.7033 78.7639 14.7194C78.7238 14.7355 78.7193 14.6924 78.6962 14.6711C78.6731 14.6499 78.6962 14.655 78.6962 14.6426C78.6572 14.655 78.6335 14.6317 78.6153 14.6021C78.5972 14.5726 78.6219 14.5653 78.6373 14.5565C78.6528 14.5477 78.7078 14.5565 78.726 14.5321V14.4911C78.726 14.4864 78.7859 14.4626 78.8002 14.4911C78.8145 14.5196 78.8553 14.5378 78.8839 14.5627C78.8877 14.5693 78.8898 14.5767 78.8898 14.5842C78.8898 14.5918 78.8877 14.5992 78.8839 14.6058C78.868 14.6192 78.8492 14.6293 78.8289 14.6353L78.8382 14.6281ZM79.0314 14.957C79.0032 14.9557 78.976 14.947 78.9529 14.9317C78.9299 14.9165 78.9118 14.8954 78.901 14.8709C78.8894 14.8449 78.901 14.8289 78.9268 14.8081C78.9527 14.7873 78.9268 14.7796 78.9268 14.7624C78.9268 14.7453 78.9505 14.7624 78.9554 14.7427C78.9582 14.7273 78.9643 14.7126 78.9736 14.6997C78.9784 14.6951 78.984 14.6914 78.9903 14.6889C78.9966 14.6864 79.0034 14.6851 79.0102 14.6851C79.017 14.6851 79.0237 14.6864 79.03 14.6889C79.0363 14.6914 79.042 14.6951 79.0468 14.6997C79.0509 14.7025 79.0541 14.7062 79.0561 14.7106C79.0716 14.7303 79.0363 14.7697 79.0627 14.7806C79.1387 14.8102 79.1778 14.7126 79.2366 14.6722C79.2548 14.6613 79.2917 14.6981 79.2719 14.7241C79.1976 14.8164 79.1646 14.9544 79.0286 14.9643L79.0314 14.957ZM79.333 15.1479C79.333 15.1739 79.2884 15.1588 79.2702 15.1479C79.2152 15.1308 79.1398 15.0924 79.1398 15.0333C79.1487 15.032 79.1569 15.0281 79.1632 15.0222C79.1696 15.0162 79.1737 15.0084 79.175 15.0001C79.1866 14.9409 79.2091 14.8771 79.2614 14.8771C79.3412 14.8771 79.4859 14.764 79.4771 14.8771C79.4683 14.9902 79.3203 15.0162 79.328 15.1365L79.333 15.1479ZM79.6323 15.3425C79.5793 15.3144 79.5282 15.2832 79.4793 15.2491L79.465 15.2367C79.4557 15.2195 79.4138 15.2159 79.4298 15.2024C79.4744 15.1469 79.4744 15.0794 79.5305 15.0338C79.5305 15.0338 79.558 15.0115 79.5657 15.0229C79.6103 15.0711 79.6125 15.1339 79.6505 15.1879C79.6714 15.2105 79.6957 15.23 79.7226 15.246C79.8857 15.3302 80.0623 15.3889 80.2454 15.4198C80.3384 15.4385 80.4308 15.4198 80.5249 15.4333C80.58 15.4442 80.695 15.4333 80.701 15.4852C80.7071 15.5371 80.5128 15.5013 80.5101 15.5137C80.4624 15.5186 80.4142 15.5186 80.3664 15.5137C80.1134 15.4946 79.8651 15.438 79.6307 15.3461L79.6323 15.3425ZM80.739 17.3971C80.739 17.4059 80.7247 17.4168 80.7209 17.4131C80.6906 17.4059 80.657 17.4059 80.6295 17.3996C80.5811 17.3862 80.6113 17.3021 80.6086 17.2481C80.6091 17.2421 80.6113 17.2362 80.6149 17.2312C80.6186 17.2262 80.6236 17.2222 80.6295 17.2196C80.6438 17.2089 80.662 17.204 80.6801 17.2058C80.6982 17.2076 80.7148 17.2162 80.7263 17.2295C80.7472 17.2674 80.7514 17.3116 80.7379 17.3524C80.7398 17.3659 80.7398 17.3795 80.7379 17.3929L80.739 17.3971ZM80.9591 17.5361C80.8914 17.5361 80.8887 17.4671 80.8557 17.4277C80.848 17.4188 80.8298 17.4422 80.8216 17.4168C80.8038 17.3483 80.8061 17.2766 80.8282 17.2092C80.8308 17.2023 80.835 17.1959 80.8405 17.1906C80.8459 17.1853 80.8525 17.1812 80.8598 17.1785C80.8671 17.1758 80.8749 17.1746 80.8828 17.175C80.8906 17.1754 80.8982 17.1773 80.9052 17.1807C80.9157 17.1848 80.9246 17.1916 80.9311 17.2004C80.9966 17.3042 80.9492 17.4235 80.9613 17.5356L80.9591 17.5361ZM81.1655 17.6139C81.13 17.5785 81.0916 17.5459 81.0505 17.5164V17.5485C81.0419 17.446 81.0419 17.3429 81.0505 17.2404C81.0517 17.2275 81.057 17.2152 81.0656 17.2052C81.0742 17.1951 81.0858 17.1877 81.0989 17.1838C81.1407 17.1714 81.1903 17.1838 81.1969 17.2243C81.2271 17.3747 81.2348 17.4915 81.2624 17.6259C81.2332 17.632 81.2027 17.6285 81.176 17.616L81.1655 17.6139ZM81.4005 17.0832C81.4291 17.0832 81.4451 17.1153 81.4594 17.1433C81.5444 17.3038 81.611 17.4723 81.658 17.6461C81.5722 17.6635 81.4841 17.6689 81.3966 17.6622C81.3863 17.6587 81.3772 17.6525 81.3703 17.6445C81.3634 17.6364 81.359 17.6268 81.3576 17.6165C81.3317 17.5128 81.2976 17.3628 81.2569 17.2015C81.2578 17.1815 81.2631 17.1619 81.2726 17.144C81.2821 17.1261 81.2955 17.1103 81.3119 17.0977C81.3383 17.0821 81.3701 17.0769 81.4005 17.0832ZM81.3284 16.9721C81.258 16.9597 81.1633 17.0043 81.1154 16.9488C81.0984 16.9291 81.1495 16.8995 81.1297 16.8736C81.1099 16.8476 81.0775 16.8378 81.0681 16.8575C81.0587 16.8772 81.0681 16.9488 81.0527 16.9804C81.0426 16.989 81.0305 16.9953 81.0174 16.9987C81.0043 17.0021 80.9906 17.0025 80.9772 17C80.9639 16.9975 80.9514 16.9921 80.9407 16.9842C80.93 16.9762 80.9214 16.9661 80.9157 16.9545C80.9624 16.942 81.0213 16.9311 81.0021 16.8767C80.9902 16.8576 80.9725 16.8425 80.9512 16.8332C80.93 16.8239 80.9063 16.821 80.8832 16.8248C80.8924 16.8737 80.8869 16.924 80.8672 16.9701C80.8474 17.0084 80.7968 16.9701 80.7616 16.9701V16.9208C80.7957 16.9296 80.8348 16.9208 80.8205 16.8689C80.8062 16.817 80.7577 16.7459 80.7054 16.789C80.6532 16.832 80.7054 16.9296 80.6427 16.9752C80.627 16.9843 80.6083 16.9876 80.5902 16.9845C80.5721 16.9813 80.5559 16.9719 80.5448 16.9581C80.5422 16.9502 80.5422 16.9417 80.5448 16.9337C80.5668 16.9078 80.5998 16.9192 80.6256 16.9078C80.6702 16.8844 80.6504 16.8217 80.6504 16.7848C80.6504 16.748 80.6009 16.7444 80.5772 16.7589C80.5536 16.7734 80.5393 16.7698 80.5431 16.7957C80.5252 16.7729 80.5162 16.745 80.5176 16.7166C80.519 16.6883 80.5307 16.6612 80.5508 16.6401C80.6278 16.5882 80.739 16.6204 80.8331 16.6401C80.9824 16.6556 81.1326 16.6626 81.2827 16.6608C81.2738 16.7652 81.2904 16.8701 81.3311 16.9675L81.3284 16.9721ZM81.3284 16.4351C81.4027 16.446 81.488 16.5202 81.4445 16.5908C81.4313 16.6115 81.3845 16.582 81.3504 16.5783C81.3163 16.5747 81.2486 16.6069 81.1947 16.6115C81.1804 16.6115 81.1749 16.597 81.1661 16.583C81.1628 16.5776 81.1583 16.573 81.1529 16.5695C81.0978 16.5254 81.0521 16.4549 80.9949 16.4881C80.9779 16.499 80.9584 16.5062 80.9381 16.5092C80.9177 16.5121 80.8969 16.5108 80.8771 16.5052C80.8678 16.5052 80.8562 16.4792 80.8678 16.4709C80.8793 16.4626 80.903 16.4082 80.9399 16.3993C80.9828 16.3914 81.027 16.3919 81.0697 16.4008C81.1124 16.4098 81.1527 16.4269 81.1881 16.4512C81.2327 16.4772 81.286 16.4289 81.3317 16.4377L81.3284 16.4351ZM81.297 15.8831C81.2877 15.9153 81.2761 15.9609 81.2382 15.962C81.1754 15.962 81.2079 16.0704 81.1727 16.0849C81.085 16.1162 80.9903 16.126 80.8975 16.1135C80.8962 16.104 80.8962 16.0944 80.8975 16.0849C80.908 16.0801 80.9173 16.0733 80.9249 16.065C80.9326 16.0567 80.9384 16.0471 80.9421 16.0367C80.9457 16.0262 80.9471 16.0152 80.9461 16.0042C80.9452 15.9933 80.942 15.9826 80.9366 15.9729V15.9656C80.9272 15.9449 80.8854 15.9485 80.8727 15.9656C80.8414 16.0113 80.8727 16.0803 80.8414 16.1171C80.8282 16.1342 80.7863 16.128 80.755 16.1171C80.7236 16.1062 80.7082 16.0839 80.7291 16.0652C80.75 16.0465 80.7759 16.0652 80.7929 16.0564C80.81 16.0476 80.7929 16.0279 80.7929 16.0107C80.7929 16.0107 80.7588 15.9417 80.7131 15.9526C80.6884 15.9526 80.6741 15.991 80.6477 15.9983C80.6449 15.979 80.6355 15.961 80.6209 15.9472C80.6063 15.9335 80.5873 15.9246 80.5668 15.922C80.5668 15.9563 80.52 15.9454 80.5117 15.9355C80.4765 15.9158 80.5194 15.8836 80.5117 15.8494C80.6961 15.8209 80.8815 15.8701 81.067 15.8271C81.0764 15.8271 81.0824 15.8011 81.0918 15.7928C81.1093 15.772 81.1344 15.7579 81.1622 15.7534C81.1622 15.7202 81.1859 15.7166 81.204 15.7041C81.2149 15.6991 81.2272 15.6977 81.239 15.6999C81.2508 15.7022 81.2616 15.708 81.2695 15.7166C81.2863 15.74 81.2972 15.7666 81.3015 15.7946C81.3058 15.8225 81.3033 15.851 81.2943 15.8779L81.297 15.8831ZM82.3085 15.1884C82.2942 15.2922 82.1632 15.3114 82.0708 15.3399C81.8435 15.4089 81.6173 15.4546 81.3807 15.5111L81.275 15.5319C81.1848 15.5526 80.9223 15.5687 80.908 15.5158C80.8937 15.4629 81.2646 15.4774 81.2618 15.4665C81.4117 15.4361 81.5588 15.395 81.7021 15.3435C81.7787 15.3101 81.8523 15.2708 81.9222 15.2263C81.9393 15.2175 81.9668 15.2263 81.9811 15.2128C82.0529 15.1631 82.1347 15.1278 82.2216 15.109C82.2766 15.0883 82.3157 15.1557 82.3102 15.1843L82.3085 15.1884ZM82.554 15.0971C82.5397 15.1402 82.5044 15.192 82.456 15.1749C82.3619 15.1417 82.3382 15.052 82.2782 14.9674C82.2782 14.9674 82.2783 14.9529 82.2915 14.9503C82.3008 14.9479 82.3107 14.9479 82.3201 14.9503C82.3448 14.9648 82.341 15.0021 82.3828 15.0104C82.4246 15.0187 82.4076 14.9622 82.4274 14.9451C82.4472 14.928 82.456 14.9684 82.4824 14.9783C82.5086 14.9865 82.5305 15.0037 82.5439 15.0265C82.5573 15.0493 82.561 15.076 82.5545 15.1012L82.554 15.0971ZM82.8154 14.9108H82.7983C82.7983 14.9627 82.7642 14.9726 82.7554 15.0229C82.7554 15.0488 82.7003 15.0374 82.6849 15.0229C82.6162 14.9508 82.5554 14.8724 82.5033 14.7889H82.5622C82.6315 14.8517 82.7136 14.806 82.779 14.8356C82.7938 14.8403 82.806 14.8503 82.8131 14.8634C82.8202 14.8764 82.8216 14.8916 82.817 14.9056L82.8154 14.9108ZM83.014 14.7432C83.0047 14.7827 82.9485 14.8195 82.9106 14.7951C82.8478 14.7547 82.7301 14.7235 82.7653 14.6582C82.7796 14.6286 82.8423 14.6768 82.8957 14.6582L82.9089 14.6338V14.6078C82.9012 14.5793 82.8919 14.5834 82.883 14.556C82.8742 14.5285 82.9172 14.5129 82.9276 14.5217C82.962 14.5484 82.9886 14.5828 83.0048 14.6219C83.0211 14.6609 83.0265 14.7032 83.0206 14.7448L83.014 14.7432ZM83.2088 14.557C83.189 14.5803 83.1747 14.6447 83.1357 14.6286C83.0966 14.6125 83.052 14.5461 83.0052 14.5056C82.9937 14.4947 83.0168 14.4823 83.0234 14.4797C83.0614 14.4709 83.1059 14.5119 83.1335 14.4735C83.161 14.4351 83.1087 14.3998 83.1335 14.3697C83.1582 14.3396 83.1659 14.3697 83.183 14.3759V14.3671C83.2276 14.393 83.2903 14.4299 83.2864 14.4755C83.2826 14.5212 83.2397 14.5321 83.2094 14.558L83.2088 14.557ZM83.4086 14.2836C83.402 14.2836 83.3993 14.3157 83.3822 14.2971C83.364 14.3292 83.3822 14.377 83.3404 14.4055C83.331 14.3858 83.3128 14.377 83.3051 14.3572C83.298 14.3455 83.2883 14.3353 83.2766 14.3274C83.2649 14.3195 83.2516 14.3141 83.2375 14.3116C83.2022 14.3028 83.1984 14.2597 83.167 14.2364C83.2165 14.1772 83.3266 14.2042 83.4009 14.2192C83.4334 14.2192 83.4295 14.2711 83.4103 14.283L83.4086 14.2836ZM83.5187 13.978C83.5021 14.0036 83.4755 14.0221 83.4447 14.0295C83.4138 14.0369 83.3811 14.0325 83.3536 14.0174C83.3365 14.0065 83.2985 14.0029 83.2985 13.9718V13.936C83.3365 13.8976 83.3965 13.9468 83.4356 13.9126C83.4381 13.9082 83.4395 13.9033 83.4395 13.8983C83.4395 13.8933 83.4381 13.8884 83.4356 13.8841C83.4097 13.8545 83.3255 13.8151 83.3701 13.7979C83.4576 13.7673 83.5754 13.8903 83.5192 13.9816L83.5187 13.978ZM83.7058 13.7186C83.6849 13.7704 83.6078 13.7876 83.5308 13.7668C83.4862 13.7533 83.4499 13.7149 83.4757 13.688C83.5016 13.661 83.5643 13.6387 83.5385 13.5966C83.5291 13.5821 83.5319 13.5582 83.511 13.5536C83.49 13.5489 83.4653 13.5671 83.4482 13.5411C83.4456 13.5332 83.4456 13.5247 83.4482 13.5167C83.4928 13.5067 83.5395 13.5089 83.5828 13.5231C83.6261 13.5372 83.6641 13.5628 83.6926 13.5966C83.7061 13.6142 83.7144 13.6348 83.7168 13.6564C83.7191 13.678 83.7153 13.6998 83.7058 13.7196V13.7186ZM83.7944 13.2848C83.7542 13.3328 83.7233 13.3871 83.703 13.4451C83.7006 13.4497 83.6973 13.4538 83.6932 13.4571C83.6892 13.4604 83.6844 13.463 83.6793 13.4645C83.6742 13.4661 83.6688 13.4668 83.6634 13.4664C83.658 13.466 83.6528 13.4646 83.648 13.4623C83.593 13.4239 83.5176 13.4363 83.4829 13.3933C83.4829 13.3844 83.462 13.3611 83.4697 13.359C83.5324 13.3481 83.6001 13.3735 83.6485 13.3393C83.697 13.3051 83.681 13.2506 83.7206 13.2163C83.7283 13.2101 83.7426 13.2163 83.7586 13.2163H83.7889C83.8164 13.2324 83.8043 13.2646 83.7955 13.2802L83.7944 13.2848ZM83.8125 13.0534C83.7355 13.0534 83.6662 13.0052 83.5842 13.0015C83.566 13.0015 83.5291 12.9906 83.533 12.9595C83.533 12.9533 83.5423 12.9424 83.5462 12.9424C83.6078 12.9102 83.6706 12.9512 83.7383 12.9424C83.7867 12.9336 83.8087 12.9709 83.8268 13.0026C83.845 13.0342 83.8268 13.0545 83.8136 13.0545L83.8125 13.0534ZM83.8384 12.877C83.8268 12.8967 83.8004 12.8682 83.7938 12.8646C83.7426 12.8225 83.6722 12.836 83.615 12.8008C83.5913 12.7862 83.5654 12.7427 83.5941 12.7406C83.6595 12.7406 83.7014 12.6975 83.7691 12.6923C83.764 12.6982 83.7601 12.7049 83.7575 12.712C83.7955 12.6949 83.8043 12.6602 83.823 12.6233C83.8258 12.6184 83.8305 12.6147 83.8361 12.6128C83.8417 12.611 83.8478 12.6112 83.8533 12.6135C83.8579 12.6158 83.8619 12.6192 83.8648 12.6233C83.8857 12.708 83.8764 12.7968 83.8384 12.876V12.877ZM83.9105 11.7875C83.8659 11.9104 83.7614 12.0521 83.8153 12.1927C83.8494 12.2726 83.9017 12.3727 83.8494 12.4391C83.8291 12.465 83.7988 12.4824 83.765 12.4874C83.7312 12.4925 83.6967 12.4848 83.6689 12.4661C83.6507 12.4573 83.6529 12.4329 83.6596 12.4205C83.6937 12.3603 83.7784 12.3208 83.7432 12.2404C83.708 12.16 83.725 12.0604 83.6948 11.9857C83.6645 11.911 83.5473 11.8627 83.5236 11.7813C83.4884 11.6324 83.7129 11.6583 83.8241 11.6718C83.8725 11.678 83.938 11.72 83.9143 11.7839L83.9105 11.7875Z" fill="#0068F5"/>
<path d="M78.0945 21.088V20.4981C78.1203 20.3751 78.1335 20.2517 78.2045 20.2013C78.2348 20.1816 78.2398 20.1235 78.1627 20.1334C78.02 20.1518 77.8747 20.143 77.7357 20.1074L77.668 20.4498C77.668 20.4498 77.8837 20.4301 77.7098 20.5728C77.7202 20.648 77.7241 20.7238 77.7214 20.7995C77.7317 21.0251 77.7177 21.2511 77.6795 21.474H78.5534C78.5953 21.4828 78.6046 21.5036 78.6046 21.5716C78.6046 21.6395 78.6596 21.8107 78.5133 21.86C78.4216 21.8929 78.3241 21.9093 78.226 21.9083L78.166 22.246C78.3362 22.1959 78.5018 22.1329 78.6613 22.0577C78.762 21.9887 78.9084 21.9347 78.9084 21.7339C78.8928 21.5177 78.9095 21.3004 78.9579 21.0885H78.0956L78.0945 21.088ZM78.8099 21.6561C78.8099 21.831 78.8099 21.8756 78.7548 21.9155C78.6267 21.9894 78.4914 22.0517 78.3509 22.1018L78.385 21.998C78.4401 21.9809 78.5155 21.9461 78.6464 21.8984C78.7774 21.8507 78.7185 21.5103 78.7185 21.4501C78.7185 21.39 78.7092 21.3765 78.6767 21.3687H77.8798C77.9101 21.1867 77.9215 21.0023 77.914 20.8182C77.914 20.6667 77.9233 20.4893 77.9233 20.4893C78.0708 20.3663 77.8463 20.4006 77.8463 20.4006L77.8331 20.1852C77.8485 20.221 78.0174 20.2174 78.0499 20.2096C78.1154 20.2008 78.1115 20.2527 78.084 20.2698C78.0251 20.3066 78.046 20.3476 78.0251 20.4561C78.0185 20.4794 78.0136 21.2208 78.0136 21.2208V21.2639H78.8341C78.7791 21.3256 78.8082 21.4834 78.8082 21.6629L78.8099 21.6561Z" fill="#0068F5"/>
<path d="M80.3379 21.8102C80.295 21.7904 80.3379 21.7225 80.3379 21.7225C80.3831 21.6952 80.4266 21.6656 80.4683 21.6338C80.4862 21.6181 80.5004 21.5991 80.5098 21.5779C80.5193 21.5567 80.5239 21.5338 80.5233 21.5108V21.1621C80.5233 21.1129 80.5349 21.0931 80.4738 21.0833C80.3838 21.0757 80.2934 21.0724 80.2031 21.0734C80.1614 21.0724 80.1201 21.0657 80.0803 21.0537C80.0688 21.1227 79.9499 21.4231 79.9499 21.4231C79.9955 21.4404 80.0435 21.4513 80.0925 21.4553C80.1475 21.4641 80.1134 21.4641 80.1343 21.4947C80.1447 21.5534 80.1447 21.6134 80.1343 21.6722C79.8686 21.5075 79.6177 21.3225 79.3842 21.1191C79.3424 21.0869 79.3016 21.0983 79.2901 21.1279C79.2406 21.2094 79.1855 21.2893 79.125 21.3671C79.125 21.3671 79.1877 21.6431 79.1971 21.7614C79.1896 21.927 79.1687 22.0917 79.1344 22.2543H79.6571L79.7876 21.9305H79.5025V21.7074C79.5025 21.668 79.5234 21.668 79.5234 21.668C79.5234 21.668 80.2658 22.2014 80.3181 22.2335C80.3704 22.2657 80.3781 22.2423 80.3781 22.2423L80.5349 21.931C80.4657 21.8943 80.399 21.8536 80.3352 21.8091L80.3379 21.8102ZM80.2075 21.1943C80.2379 21.2034 80.2696 21.2083 80.3016 21.2088H80.3825C80.4298 21.2088 80.4243 21.269 80.4243 21.3064V21.378C80.4286 21.4296 80.4201 21.4815 80.3995 21.5295C80.3692 21.556 80.3364 21.58 80.3016 21.6011C80.3138 21.5311 80.3182 21.4602 80.3148 21.3894C80.2977 21.3671 80.3148 21.3671 80.2807 21.3572C80.2465 21.3474 80.1772 21.3681 80.1502 21.3572C80.1738 21.3071 80.1922 21.255 80.2053 21.2016L80.2075 21.1943ZM80.3379 22.0971C80.3195 22.0795 80.2987 22.0641 80.2763 22.0514C80.2333 22.0281 79.4216 21.4833 79.4216 21.4833V21.571C79.4216 21.6016 79.431 21.9995 79.431 21.9995H79.6649L79.5928 22.1106H79.3143C79.3309 21.9949 79.341 21.8785 79.3446 21.7619C79.3352 21.6581 79.3104 21.3925 79.3104 21.3925C79.3284 21.3731 79.3438 21.3517 79.3561 21.3287C79.3666 21.3027 79.3991 21.2944 79.4282 21.3199C79.7143 21.5898 80.0487 21.8101 80.416 21.9705L80.3379 22.0971Z" fill="#0068F5"/>
<path d="M81.6077 21.0929H80.9347C80.8685 21.0844 80.8075 21.0543 80.7624 21.0078L80.6523 21.3772C80.6534 21.3922 80.6577 21.4068 80.6649 21.4202C80.6721 21.4336 80.6821 21.4454 80.6943 21.4551C80.7064 21.4648 80.7205 21.4721 80.7357 21.4765C80.7509 21.481 80.7669 21.4825 80.7828 21.481H81.3391V22.2478C81.3391 22.2478 81.6528 22.1248 81.6693 22.1248C81.6858 22.1248 81.6952 22.1103 81.6952 22.0449V21.1977C81.6952 21.1977 81.7056 21.0929 81.6077 21.0929ZM81.5868 21.3108V21.9474C81.5868 21.9993 81.5774 22.004 81.5648 22.0091C81.5333 22.0202 81.5009 22.0289 81.4679 22.0351V21.3606H80.9677C80.9426 21.3616 80.9181 21.3532 80.8996 21.3373C80.881 21.3214 80.8699 21.2992 80.8686 21.2755L80.8934 21.178C80.9284 21.2162 80.9772 21.2408 81.0304 21.247H81.5218C81.5384 21.2456 81.5548 21.2502 81.5679 21.2598C81.581 21.2695 81.5897 21.2834 81.5923 21.2989L81.5868 21.3108Z" fill="#0068F5"/>
<path d="M83.1393 21.0937L83.0359 21.4335L83.1459 21.4542C83.1544 21.5234 83.1518 21.5934 83.1382 21.6618C83.1218 21.7126 83.0867 21.7562 83.0392 21.7847C82.945 21.8086 82.8494 21.8274 82.753 21.8413C82.753 21.8413 82.9632 21.1279 82.966 21.09H82.5923L82.4679 21.4117L82.5857 21.4439C82.5256 21.5907 82.4577 21.7346 82.3821 21.875C82.3426 21.8182 82.3171 21.7537 82.3076 21.6864C82.2981 21.619 82.3047 21.5505 82.3271 21.4859C82.3573 21.3712 82.3936 21.2581 82.4371 21.1471C82.458 21.1139 82.3992 21.0952 82.3601 21.0952C82.2434 21.1063 82.1257 21.0862 82.0205 21.0371L81.873 21.3671C81.8881 21.3897 81.9081 21.409 81.9317 21.4237C81.9554 21.4384 81.9821 21.4481 82.0101 21.4522C82.1108 21.4719 82.0282 21.5471 82.0101 21.5606C81.9958 21.5751 81.9848 21.5922 81.9778 21.6109C81.9708 21.6295 81.9679 21.6493 81.9693 21.669C81.9693 21.7173 81.9561 22.2491 81.9561 22.2491C81.9561 22.2491 82.9935 22.1137 83.0683 22.1002C83.1234 22.0914 83.1234 22.0794 83.152 22.0545C83.1806 22.0296 83.3468 21.8366 83.3622 21.8169C83.3776 21.7972 83.3765 21.791 83.3831 21.7432C83.3897 21.6955 83.4249 21.0952 83.4249 21.0952H83.136L83.1393 21.0937ZM83.3264 21.6504C83.3229 21.6953 83.312 21.7394 83.294 21.7811C83.2824 21.7982 83.1239 21.9368 83.1008 21.9585C83.0825 21.9759 83.0588 21.9871 83.0331 21.9907C82.9731 22.0016 82.108 22.1137 82.108 22.1137C82.108 22.1137 82.1174 21.6888 82.1174 21.6467C82.1161 21.6083 82.125 21.5701 82.1433 21.5357C82.1614 21.5233 82.2533 21.405 82.1983 21.393C82.1562 21.3858 82.1153 21.3734 82.0767 21.3562L82.1471 21.2073C82.191 21.2138 82.2346 21.2224 82.2775 21.2332C82.31 21.2332 82.3573 21.2467 82.3392 21.2753C82.321 21.3038 82.2775 21.475 82.2544 21.5497C82.2328 21.6894 82.2328 21.8313 82.2544 21.971C82.2687 22.0032 82.5026 21.971 82.5026 21.971C82.5329 21.944 82.764 21.3795 82.764 21.3795H82.6242L82.687 21.2566H82.8741C82.8741 21.2887 82.6457 21.9611 82.6457 21.9611C82.6457 21.9611 83.0496 21.9093 83.086 21.8921C83.154 21.8517 83.2106 21.7963 83.251 21.7308C83.2696 21.627 83.281 21.5221 83.2852 21.4169H83.1789L83.2257 21.2555H83.3655C83.3655 21.2555 83.3264 21.6089 83.3182 21.6498L83.3264 21.6504Z" fill="#0068F5"/>
<path d="M84.0913 21.0364C84.0045 21.0447 83.9172 21.0484 83.8299 21.0473C83.7798 21.0362 83.7311 21.02 83.6846 20.999L83.5195 21.4447C83.5614 21.4841 83.7688 21.4644 83.7688 21.4644L83.727 21.7882L84.0666 21.7005C84.0689 21.5247 84.1033 21.3506 84.1684 21.1858C84.1942 21.0883 84.154 21.0364 84.0913 21.0364ZM84.017 21.316C83.9895 21.4093 83.9729 21.5052 83.9675 21.6019L83.8839 21.6242L83.9152 21.3778C83.8585 21.3962 83.7969 21.3962 83.7402 21.3778L83.7991 21.2289C83.8295 21.2258 83.8601 21.2258 83.8905 21.2289C83.9208 21.2319 83.9514 21.2319 83.9818 21.2289C84.0264 21.2289 84.0418 21.2289 84.017 21.3025V21.316Z" fill="#0068F5"/>
<path d="M77.3808 21.0932C77.3808 21.0932 76.8305 20.9589 76.7887 20.6829C76.7766 20.5528 76.8033 20.4222 76.8657 20.3057C76.8657 20.3057 77.0253 20.2735 77.0396 20.2144C77.0519 20.1809 77.0502 20.1443 77.0349 20.112C77.0195 20.0797 76.9917 20.0542 76.9571 20.0405C76.8707 20.0084 76.8355 20.0234 76.7782 20.0888C76.7631 20.1032 76.7528 20.1216 76.7486 20.1415C76.7444 20.1614 76.7465 20.1821 76.7546 20.2009C76.7546 20.2009 76.8564 20.3238 76.6803 20.4473C76.6209 20.2858 76.5839 20.1177 76.5702 19.9472C76.6582 19.7001 76.7702 19.4613 76.9048 19.2338C76.9846 19.1108 77.1596 18.8644 77.1596 18.8644C77.1368 19.2364 77.0007 19.5943 76.7678 19.8953C76.9524 19.7606 77.1014 19.5875 77.2032 19.3895C77.305 19.1915 77.3567 18.9739 77.3544 18.7539C77.3424 18.6184 77.3205 18.4839 77.2889 18.3512C77.1139 18.575 76.9523 18.8078 76.8047 19.0485C76.7088 19.2295 76.6284 19.4174 76.5642 19.6104C76.5642 19.6104 76.5499 19.1684 76.5642 19.1176C76.6271 19.0057 76.7038 18.9012 76.7926 18.8063C76.8173 18.8104 76.8427 18.8077 76.8659 18.7984C76.889 18.7892 76.9088 18.7739 76.923 18.7544C76.9571 18.6916 76.9675 18.593 76.8823 18.5598C76.797 18.5266 76.7007 18.6179 76.7007 18.6179C76.6821 18.6704 76.6849 18.7275 76.7083 18.7782L76.5675 18.9012V18.4529C76.6592 18.2198 76.7711 17.9943 76.9021 17.7785C76.9819 17.6555 77.1635 17.4091 77.1635 17.4091C77.1394 17.7808 77.0035 18.1384 76.7716 18.44C76.9546 18.3025 77.1004 18.1261 77.1972 17.9253C77.294 17.7245 77.339 17.5049 77.3286 17.2845C77.3286 17.1761 77.2944 16.9016 77.2944 16.9016C77.1093 17.1095 76.94 17.3293 76.7876 17.5595C76.6979 17.7368 76.6243 17.921 76.5675 18.11C76.5675 18.11 76.5532 17.7095 76.5675 17.6591C76.6298 17.5479 76.7065 17.4444 76.7958 17.3509C76.8205 17.3543 76.8457 17.3513 76.8687 17.3421C76.8917 17.333 76.9116 17.3181 76.9263 17.2991C76.9604 17.2352 76.9709 17.1367 76.8845 17.1045C76.7981 17.0723 76.7039 17.1611 76.7039 17.1611C76.6855 17.213 76.6882 17.2696 76.7117 17.3198L76.5708 17.4428V16.9821C76.6628 16.7489 76.7751 16.5233 76.9065 16.3076C76.9863 16.1846 77.1679 15.9382 77.1679 15.9382C77.1451 16.3106 77.009 16.6691 76.776 16.9706C76.9613 16.8365 77.1108 16.6635 77.2128 16.4653C77.3148 16.2672 77.3665 16.0494 77.3638 15.8292C77.3506 15.6938 77.3284 15.5594 77.2972 15.4266C77.119 15.6318 76.9566 15.8487 76.8113 16.0757C76.7154 16.2597 76.635 16.4505 76.5708 16.6464C76.5708 16.6464 76.5565 16.2474 76.5708 16.1955C76.6335 16.0845 76.7102 15.9811 76.7992 15.8873C76.8238 15.8907 76.849 15.8876 76.872 15.8785C76.895 15.8694 76.9149 15.8545 76.9296 15.8354C76.9648 15.7727 76.9741 15.6731 76.8889 15.6409C76.8036 15.6087 76.7073 15.6974 76.7073 15.6974C76.6893 15.7501 76.6926 15.8072 76.7166 15.8578L76.5741 15.9807V15.59C76.6482 15.3524 76.7509 15.1235 76.8801 14.9078C76.9609 14.7848 77.0732 14.6048 77.0732 14.6048C77.0694 14.9349 76.9576 15.2558 76.7529 15.5236C76.9258 15.4186 77.0656 15.2717 77.1576 15.0983C77.2495 14.9248 77.2903 14.7313 77.2757 14.5379C77.2757 14.4268 77.2598 14.0647 77.2598 14.0647C77.0756 14.2495 76.9098 14.4499 76.7645 14.6634C76.6793 14.8554 76.6107 15.0535 76.5592 15.2559C76.5592 15.2559 76.5449 14.8668 76.5592 14.8139C76.6005 14.7175 76.649 14.6241 76.7045 14.5342C76.7045 14.5342 76.8063 14.5664 76.8443 14.5109C76.8566 14.4985 76.8661 14.4839 76.8722 14.468C76.8783 14.452 76.8808 14.435 76.8796 14.4181C76.8784 14.4012 76.8736 14.3847 76.8653 14.3696C76.8571 14.3545 76.8456 14.3412 76.8317 14.3305C76.8177 14.3198 76.8016 14.3119 76.7843 14.3073C76.767 14.3028 76.7488 14.3016 76.731 14.3039C76.7132 14.3062 76.6961 14.312 76.6807 14.3208C76.6654 14.3296 76.6521 14.3414 76.6418 14.3552C76.6314 14.3771 76.6261 14.4008 76.6261 14.4248C76.6261 14.4487 76.6314 14.4724 76.6418 14.4943L76.5532 14.598V14.2753C76.6013 14.0355 76.6896 13.8043 76.8146 13.5905L77.0484 13.2273C77.0526 13.5443 76.9471 13.8539 76.748 14.1093C76.9104 13.984 77.0437 13.8286 77.1397 13.6527C77.2357 13.4767 77.2923 13.2841 77.306 13.0867C77.306 12.9783 77.2719 12.6509 77.2719 12.6509C77.068 12.8524 76.8838 13.0709 76.7216 13.3036C76.6224 13.502 76.5622 13.7158 76.5438 13.9345C76.5438 13.9345 76.5295 13.4961 76.5438 13.4416C76.5746 13.3592 76.6114 13.2789 76.6539 13.2014C76.6652 13.2068 76.6775 13.21 76.6902 13.2108C76.7028 13.2116 76.7155 13.21 76.7275 13.2061C76.7394 13.2022 76.7505 13.196 76.7599 13.188C76.7692 13.1799 76.7768 13.1702 76.7821 13.1593C76.797 13.1308 76.7995 13.098 76.7893 13.0677C76.779 13.0374 76.7567 13.0121 76.7271 12.9969C76.6445 12.9549 76.6082 13.0141 76.6082 13.0141C76.5906 13.0666 76.593 13.1233 76.6148 13.1744L76.5471 13.2263L76.5405 12.9025C76.6151 12.6719 76.7164 12.4497 76.8426 12.24C76.9224 12.117 77.1277 11.8706 77.1277 11.8706C77.1352 12.1831 77.0261 12.4883 76.8195 12.7329C76.9851 12.6408 77.1192 12.5059 77.2058 12.3441C77.2924 12.1823 77.328 12.0005 77.3082 11.8202C77.3172 11.6936 77.3057 11.5664 77.2741 11.4431C77.0555 11.6252 76.8616 11.832 76.6968 12.0589C76.6003 12.2746 76.5218 12.4969 76.4618 12.724V10.7369C76.575 10.8837 76.6363 11.0603 76.6368 11.2417C76.6512 11.4444 76.6512 11.6477 76.6368 11.8503C76.6979 11.6667 76.7415 11.4783 76.7672 11.2874C76.7734 11.0848 76.7126 10.8853 76.5933 10.7167C76.5372 10.5985 76.4887 10.4772 76.448 10.3535C76.4231 10.4834 76.3749 10.6083 76.3055 10.7229C76.2038 10.9031 76.1509 11.1041 76.1514 11.3082C76.1876 11.5753 76.2655 11.836 76.3826 12.0817C76.4062 12.13 76.3919 12.7738 76.3919 12.7738C76.2295 12.6623 76.0873 12.5267 75.9709 12.3723C75.8746 12.1961 75.8109 12.0057 75.7827 11.8093C75.7827 11.8093 75.9225 11.965 76.0028 12.047C76.1062 12.1752 76.2005 12.3097 76.2852 12.4496C76.3259 12.0122 75.6319 11.4529 75.6319 11.4529C75.5979 11.8281 75.6621 12.2055 75.819 12.5518C75.9797 12.733 76.184 12.8754 76.415 12.9669V13.2429L76.3116 13.1801C76.3302 13.1275 76.3269 13.0701 76.3022 13.0198C76.3022 13.0198 76.1987 12.9409 76.1151 12.9803C76.0315 13.0198 76.0562 13.1194 76.0942 13.1801C76.1322 13.2408 76.2312 13.2195 76.2312 13.2195C76.3011 13.2777 76.3603 13.3464 76.4062 13.4229C76.4271 13.4712 76.4156 14.1768 76.4156 14.1768C76.2577 14.0582 76.1248 13.9129 76.0238 13.7482C75.9273 13.5832 75.8548 13.4068 75.808 13.2237C75.808 13.2237 75.9731 13.3529 76.0562 13.4312C76.1458 13.5477 76.2244 13.6713 76.2912 13.8006C76.3319 13.3632 75.638 12.7386 75.638 12.7386C75.612 13.1143 75.676 13.4907 75.8251 13.84C75.9741 14.0455 76.1803 14.2083 76.4211 14.3106V14.5814L76.2643 14.4704C76.2808 14.4176 76.2775 14.3609 76.2549 14.3101C76.2549 14.3101 76.1514 14.2323 76.0694 14.2696C75.9874 14.307 76.0067 14.4102 76.0474 14.4704C76.0632 14.4877 76.0837 14.5005 76.1067 14.5075C76.1298 14.5144 76.1544 14.5153 76.1778 14.5098C76.2641 14.5944 76.3406 14.6873 76.4062 14.7869C76.4271 14.8351 76.4156 15.5397 76.4156 15.5397C76.2582 15.4222 76.1253 15.2781 76.0238 15.1148C75.9281 14.9494 75.8552 14.7731 75.8069 14.5903C75.8942 14.6549 75.9774 14.7242 76.0562 14.7978C76.1455 14.9143 76.2237 15.0379 76.2901 15.1672C76.3319 14.7298 75.6369 14.1052 75.6369 14.1052C75.6108 14.4809 75.6748 14.8573 75.824 15.2066C75.9739 15.4141 76.1819 15.5783 76.4249 15.6808V15.9693L76.2643 15.8655C76.2808 15.8127 76.2775 15.756 76.2549 15.7052C76.2549 15.7052 76.1514 15.6274 76.0694 15.6684C75.9874 15.7094 76.0067 15.8054 76.0474 15.8655C76.0632 15.8828 76.0837 15.8956 76.1067 15.9026C76.1298 15.9096 76.1544 15.9104 76.1778 15.905C76.2646 15.9895 76.3417 16.0823 76.4079 16.182C76.4288 16.2313 76.4156 16.9359 76.4156 16.9359C76.2591 16.8174 76.1264 16.6735 76.0238 16.511C75.9283 16.3456 75.8558 16.1693 75.808 15.9864C75.8954 16.0509 75.9786 16.1202 76.0573 16.194C76.1464 16.3105 76.2246 16.4341 76.2912 16.5634C76.3319 16.126 75.638 15.5013 75.638 15.5013C75.612 15.8771 75.6759 16.2535 75.8251 16.6028C75.9742 16.8098 76.1802 16.9746 76.4211 17.0796V17.449L76.2643 17.3271C76.2807 17.2747 76.2774 17.2186 76.2549 17.1683C76.2549 17.1683 76.1514 17.0905 76.0694 17.1278C75.9874 17.1652 76.0067 17.2669 76.0474 17.3276C76.0631 17.3451 76.0835 17.3581 76.1066 17.3652C76.1296 17.3724 76.1543 17.3734 76.1778 17.3681C76.2639 17.4528 76.3409 17.5452 76.4079 17.6441C76.4277 17.6934 76.4156 18.399 76.4156 18.399C76.2591 18.2801 76.1264 18.1359 76.0238 17.973C75.9278 17.8078 75.8553 17.6315 75.808 17.4485C75.808 17.4485 75.9731 17.5792 76.0573 17.656C76.1466 17.7725 76.2248 17.8961 76.2912 18.0254C76.3319 17.588 75.638 16.9634 75.638 16.9634C75.612 17.3391 75.676 17.7155 75.8251 18.0648C75.9724 18.2709 76.1792 18.433 76.4211 18.5318V18.9012L76.2643 18.7881C76.2806 18.7368 76.2773 18.6817 76.2549 18.6324C76.2549 18.6324 76.1514 18.5525 76.0694 18.592C75.9874 18.6314 76.0067 18.7289 76.0474 18.7891C76.0632 18.8064 76.0837 18.8192 76.1067 18.8262C76.1298 18.8332 76.1544 18.834 76.1778 18.8286C76.2636 18.9139 76.3406 19.0066 76.4079 19.1056C76.4288 19.1575 76.4172 19.8595 76.4172 19.8595C76.2604 19.7413 76.1277 19.5974 76.0254 19.4346C75.9286 19.2696 75.8557 19.0932 75.8086 18.91C75.8959 18.9745 75.9792 19.0438 76.0579 19.1176C76.1469 19.2341 76.2252 19.3577 76.2918 19.487C76.3325 19.0532 75.6385 18.4275 75.6385 18.4275C75.6131 18.8024 75.6771 19.1779 75.8256 19.5264C75.9805 19.7365 76.1946 19.9016 76.4436 20.0032C76.4657 20.2003 76.5064 20.4613 76.5064 20.4613C76.3198 20.3601 76.3617 20.2802 76.3617 20.2802C76.3671 20.2556 76.3662 20.2301 76.3589 20.2059C76.3516 20.1816 76.3382 20.1595 76.3198 20.1412C76.2609 20.0846 76.1982 20.0437 76.1135 20.0846C76.0287 20.1256 76.0727 20.2003 76.0937 20.261C76.1146 20.3218 76.218 20.3607 76.218 20.3607C76.3293 20.468 76.4491 20.5672 76.5763 20.6574C76.6497 20.8614 76.7724 21.0465 76.9348 21.1981C77.0972 21.3496 77.2947 21.4635 77.5118 21.5306L77.3808 21.0932ZM77.2961 21.225C77.2867 21.2852 77.2752 21.2966 77.2124 21.2582C77.0991 21.1904 77.0047 21.0979 76.9373 20.9884C77.0301 21.0574 77.1298 21.1177 77.235 21.1685C77.2955 21.1783 77.3099 21.1674 77.2955 21.2276L77.2961 21.225Z" fill="#0068F5"/>
<path d="M85.8754 13.8436C86.0218 13.4937 86.0842 13.1175 86.0581 12.7422C86.0581 12.7422 85.3575 13.3648 85.4048 13.8026C85.4712 13.6728 85.5504 13.5491 85.6415 13.4332C85.7251 13.3533 85.8886 13.2257 85.8886 13.2257C85.8415 13.4094 85.7686 13.5863 85.6718 13.7518C85.5704 13.916 85.4375 14.061 85.2799 14.1793C85.2799 14.1793 85.2706 13.4748 85.2915 13.4255C85.3368 13.3493 85.3956 13.281 85.4654 13.2236C85.4654 13.2236 85.5584 13.2434 85.5958 13.1842C85.6332 13.1251 85.6586 13.0239 85.5738 12.9834C85.4891 12.943 85.3883 13.0239 85.3883 13.0239C85.3651 13.074 85.3618 13.1304 85.379 13.1827L85.2755 13.2454V12.971C85.5068 12.8794 85.7115 12.7371 85.8726 12.5559C86.028 12.2092 86.0913 11.832 86.057 11.457C86.057 11.457 85.3564 12.0174 85.4038 12.4537C85.4879 12.3155 85.5809 12.1822 85.6822 12.0547C85.7659 11.9748 85.9023 11.8233 85.9023 11.8233C85.8758 12.0194 85.814 12.2098 85.7196 12.3863C85.5997 12.5394 85.4566 12.675 85.2948 12.7889C85.2856 12.5576 85.2894 12.3261 85.3064 12.0952C85.4226 11.8472 85.5022 11.5853 85.543 11.3169C85.5406 11.1132 85.4878 10.9128 85.3889 10.7317C85.318 10.6176 85.2694 10.4925 85.2453 10.3623C85.2046 10.486 85.1561 10.6073 85.1 10.7255C84.9828 10.8951 84.9219 11.0938 84.925 11.2962C84.9507 11.4871 84.9943 11.6755 85.0554 11.8591C85.039 11.6566 85.039 11.4531 85.0554 11.2505C85.0543 11.0688 85.1157 10.8917 85.2304 10.7457L85.2238 12.7328C85.1632 12.5057 85.0841 12.2833 84.9872 12.0677C84.8214 11.841 84.627 11.6342 84.4082 11.4518C84.3766 11.5752 84.3651 11.7024 84.3741 11.829C84.359 12.0092 84.3986 12.1897 84.4884 12.3494C84.5781 12.5091 84.7143 12.6414 84.8809 12.7308C84.6744 12.486 84.5649 12.1811 84.5711 11.8685C84.5711 11.8685 84.7775 12.1149 84.86 12.2379C84.9859 12.4471 85.0863 12.669 85.1594 12.8994V13.2231L85.0851 13.1666C85.1067 13.1151 85.1067 13.0577 85.0851 13.0062C85.0851 13.0062 85.051 12.9461 84.9674 12.9891C84.9516 12.9959 84.9373 13.0055 84.9255 13.0175C84.9137 13.0295 84.9046 13.0436 84.8987 13.059C84.8927 13.0743 84.8901 13.0907 84.8909 13.107C84.8918 13.1233 84.896 13.1394 84.9035 13.1541C84.9143 13.1716 84.931 13.1853 84.9509 13.1929C84.9708 13.2005 84.9929 13.2016 85.0136 13.1961C85.0577 13.2751 85.0946 13.3576 85.1236 13.4426C85.138 13.4945 85.1236 13.9355 85.1236 13.9355C85.1072 13.7165 85.0469 13.5024 84.9459 13.3046C84.7856 13.0712 84.6028 12.8522 84.4 12.6503C84.4 12.6503 84.3658 12.9793 84.3658 13.0877C84.3789 13.2847 84.4348 13.477 84.5302 13.6526C84.6255 13.8283 84.7582 13.9836 84.92 14.1088C84.7227 13.8527 84.619 13.5432 84.6245 13.2268C84.6245 13.2268 84.7824 13.4644 84.8595 13.5962C84.9852 13.8097 85.0735 14.0409 85.1209 14.281L85.1275 14.6001L85.0345 14.4963C85.0464 14.4751 85.0532 14.4515 85.0544 14.4275C85.0555 14.4035 85.051 14.3795 85.0411 14.3573C85.0411 14.3573 84.9525 14.282 84.871 14.3277C84.7896 14.3734 84.7912 14.4398 84.8408 14.514C84.8903 14.5882 84.9794 14.5363 84.9794 14.5363C85.0359 14.6253 85.084 14.7189 85.1231 14.8159C85.1323 14.9637 85.1323 15.1118 85.1231 15.2595C85.0772 15.0595 85.0113 14.8641 84.9261 14.6758C84.782 14.4613 84.6161 14.2604 84.4308 14.0761C84.4308 14.0761 84.4154 14.4455 84.4154 14.5503C84.4005 14.7437 84.4412 14.9374 84.5332 15.1108C84.6252 15.2843 84.7651 15.4312 84.9382 15.5361C84.7332 15.264 84.6236 14.9384 84.6245 14.6048C84.6245 14.6048 84.7406 14.7822 84.8204 14.9078C84.949 15.123 85.0516 15.3511 85.1264 15.5879V15.9796L84.9839 15.8567C85.0041 15.8042 85.0041 15.7467 84.9839 15.6943C84.9839 15.6943 84.8898 15.6066 84.8023 15.6388C84.7148 15.6709 84.7291 15.7695 84.7615 15.8323C84.794 15.8951 84.8919 15.8842 84.8919 15.8842C84.9801 15.9788 85.0556 16.0834 85.1165 16.1955C85.1308 16.2474 85.1165 16.6453 85.1165 16.6453C85.058 16.4488 84.9807 16.2578 84.8853 16.0746C84.7425 15.8451 84.5831 15.6251 84.4082 15.4162C84.3754 15.5488 84.3522 15.6833 84.3389 15.8188C84.3363 16.0385 84.3879 16.2557 84.4897 16.4532C84.5916 16.6508 84.7408 16.8233 84.9255 16.9571C84.6929 16.6563 84.5569 16.2988 84.5337 15.9272C84.5337 15.9272 84.7087 16.1737 84.7951 16.2967C84.9262 16.5149 85.0384 16.7427 85.1308 16.9779V17.4396L84.9899 17.3167C85.0095 17.2648 85.0095 17.2082 84.9899 17.1564C84.9899 17.1564 84.8947 17.0676 84.8083 17.0982C84.7219 17.1289 84.7351 17.23 84.7665 17.2928C84.7978 17.3556 84.8969 17.3447 84.8969 17.3447C84.9856 17.4382 85.0616 17.5417 85.1231 17.6529C85.1374 17.7048 85.1231 18.1037 85.1231 18.1037C85.0683 17.9141 84.9946 17.7298 84.903 17.5533C84.7517 17.3197 84.583 17.0966 84.3983 16.8855C84.3983 16.8855 84.3642 17.16 84.3642 17.2674C84.3531 17.4881 84.3975 17.7082 84.4938 17.9096C84.5901 18.111 84.7356 18.2881 84.9184 18.4264C84.6864 18.1253 84.5505 17.768 84.5265 17.3966C84.5265 17.3966 84.7004 17.643 84.7813 17.766C84.9125 17.9822 85.0256 18.2077 85.1198 18.4404V18.8923L84.9772 18.7694C84.9975 18.7176 84.9975 18.6608 84.9772 18.6091C84.9772 18.6091 84.8832 18.5203 84.7957 18.551C84.7082 18.5816 84.7225 18.6817 84.7549 18.7455C84.7874 18.8093 84.8853 18.801 84.8853 18.801C84.9737 18.8944 85.0491 18.998 85.1099 19.1092C85.1242 19.1611 85.1099 19.6021 85.1099 19.6021C85.0553 19.4099 84.9816 19.223 84.8897 19.0438C84.7426 18.8022 84.5813 18.5686 84.4066 18.3439C84.3743 18.4766 84.3511 18.6111 84.3372 18.7466C84.3347 18.9666 84.3863 19.1843 84.4881 19.3823C84.5899 19.5804 84.7391 19.7535 84.9239 19.888C84.6914 19.5871 84.5554 19.2297 84.532 18.8581C84.532 18.8581 84.706 19.1045 84.7935 19.2275C84.9295 19.4543 85.0428 19.6927 85.1319 19.9393C85.1157 20.1075 85.0775 20.273 85.018 20.4322C84.9952 20.4214 84.975 20.4061 84.9589 20.3875C84.9427 20.3688 84.931 20.3471 84.9243 20.3239C84.9177 20.3006 84.9163 20.2763 84.9203 20.2525C84.9243 20.2287 84.9336 20.206 84.9475 20.1858C84.9545 20.1668 84.9558 20.1464 84.9513 20.1268C84.9467 20.1072 84.9365 20.0892 84.9217 20.0748C84.9056 20.0468 84.8788 20.0258 84.8466 20.0161C84.8145 20.0064 84.7797 20.0089 84.7494 20.0229H84.7428C84.7091 20.0375 84.6823 20.0633 84.6676 20.0954C84.6528 20.1274 84.6512 20.1635 84.663 20.1967C84.6746 20.2569 84.8342 20.288 84.8342 20.288C84.8986 20.4039 84.9253 20.535 84.9112 20.6652C84.8666 20.9412 84.3218 21.0756 84.3218 21.0756L84.1914 21.5067C84.4085 21.4398 84.606 21.3261 84.7684 21.1748C84.9307 21.0234 85.0535 20.8384 85.1269 20.6346C85.2551 20.544 85.3761 20.4448 85.4891 20.3378C85.4891 20.3378 85.5898 20.2973 85.6107 20.2382C85.6316 20.179 85.6734 20.1002 85.5898 20.0607C85.5061 20.0213 85.4461 20.0607 85.3861 20.1189C85.3676 20.137 85.354 20.1592 85.3465 20.1834C85.339 20.2076 85.3379 20.2332 85.3432 20.2579C85.3432 20.2579 85.3861 20.3368 85.1979 20.4379C85.1979 20.4379 85.2397 20.1785 85.2618 19.9808C85.5103 19.8784 85.7241 19.7135 85.8798 19.504C86.0261 19.155 86.089 18.7798 86.0641 18.4052C86.0641 18.4052 85.3636 19.0278 85.4109 19.4646C85.4774 19.3348 85.5566 19.2111 85.6475 19.0952C85.7312 19.0153 85.8946 18.8877 85.8946 18.8877C85.8482 19.0778 85.7741 19.2609 85.6745 19.4319C85.5722 19.5947 85.4395 19.7387 85.2827 19.8568C85.2827 19.8568 85.2733 19.1549 85.2942 19.103C85.3575 19.0053 85.4312 18.914 85.5144 18.8306C85.5378 18.8361 85.5625 18.8353 85.5855 18.8283C85.6085 18.8214 85.6291 18.8085 85.6448 18.7912C85.6877 18.731 85.7086 18.6355 85.625 18.593C85.5413 18.5504 85.4406 18.6335 85.4406 18.6335C85.4178 18.6825 85.4137 18.7375 85.4291 18.7891L85.2761 18.8965V18.5292C85.5176 18.4293 85.7245 18.2675 85.8732 18.0622C86.0216 17.7103 86.0846 17.3314 86.0575 16.9535C86.0575 16.9535 85.357 17.5761 85.4043 18.0155C85.4711 17.8856 85.5507 17.7619 85.642 17.6461C85.7257 17.5683 85.8891 17.4386 85.8891 17.4386C85.8422 17.6243 85.7702 17.8035 85.6751 17.9719C85.5724 18.1345 85.4397 18.2785 85.2832 18.3969C85.2832 18.3969 85.2739 17.6923 85.2948 17.643C85.3575 17.5425 85.4329 17.4495 85.5193 17.366C85.5429 17.3713 85.5676 17.3704 85.5906 17.3632C85.6137 17.3561 85.6341 17.343 85.6497 17.3255C85.6916 17.2663 85.7125 17.1667 85.6288 17.1273C85.5452 17.0879 85.4461 17.1667 85.4461 17.1667C85.4217 17.2164 85.417 17.2728 85.4329 17.3255L85.2799 17.4339V17.0661C85.5212 16.9603 85.7279 16.7953 85.8781 16.5882C86.0246 16.2383 86.087 15.8621 86.0608 15.4868C86.0608 15.4868 85.3619 16.1094 85.4076 16.5488C85.4739 16.4187 85.5535 16.295 85.6453 16.1794C85.729 16.1005 85.8924 15.9719 85.8924 15.9719C85.8443 16.158 85.7702 16.3373 85.6723 16.5052C85.5701 16.6681 85.4373 16.8121 85.2805 16.9301C85.2805 16.9301 85.2711 16.2256 85.292 16.1763C85.3551 16.0763 85.4305 15.9836 85.5166 15.9003C85.5166 15.9003 85.6096 15.92 85.647 15.8598C85.6844 15.7996 85.7097 15.6984 85.6261 15.6626C85.5947 15.6548 85.5618 15.6541 85.5301 15.6605C85.4983 15.6669 85.4686 15.6803 85.4434 15.6995C85.4187 15.7501 85.4146 15.8075 85.4318 15.8608L85.2805 15.9693V15.6808C85.5243 15.5782 85.7337 15.4145 85.8858 15.2076C86.0315 14.8572 86.0939 14.4808 86.0685 14.1051C86.0685 14.1051 85.3696 14.7277 85.4153 15.1672C85.4826 15.0375 85.5621 14.9139 85.653 14.7978C85.7367 14.7215 85.9001 14.5933 85.9001 14.5933C85.8487 14.7774 85.7719 14.9542 85.6718 15.1194C85.5696 15.2823 85.4368 15.4263 85.2799 15.5444C85.2799 15.5444 85.2706 14.8398 85.2915 14.7905C85.3533 14.6913 85.4272 14.5991 85.5116 14.516C85.5352 14.5213 85.5599 14.5204 85.5829 14.5132C85.6059 14.5061 85.6264 14.493 85.642 14.4756C85.6839 14.4164 85.7048 14.3168 85.6211 14.2758C85.5375 14.2348 85.4384 14.3163 85.4384 14.3163C85.4137 14.366 85.4096 14.4226 85.4269 14.4751L85.2728 14.5835V14.3127C85.5175 14.2145 85.7268 14.0516 85.8754 13.8436ZM84.4853 21.2566C84.4225 21.2961 84.4132 21.2852 84.4016 21.2234C84.3901 21.1617 84.4016 21.1752 84.4644 21.1669C84.5704 21.1161 84.671 21.0558 84.7648 20.9869C84.6969 21.0973 84.6008 21.19 84.4853 21.2566Z" fill="#0068F5"/>
<path d="M78.9551 17.7178V18.7798H82.7688V17.7178H78.9551ZM79.1422 18.6786H79.0871V17.8003H79.8521V17.8522H79.1422V18.6786ZM79.2726 18.5998H79.2176V17.931H79.7596V17.9829H79.271V18.5998H79.2726ZM79.7679 18.4052C79.775 18.4163 79.7852 18.4254 79.7975 18.4312C79.8098 18.4371 79.8235 18.4396 79.8372 18.4384V18.4789C79.8156 18.4807 79.7939 18.4767 79.7744 18.4676C79.755 18.4584 79.7387 18.4444 79.7272 18.427C79.7212 18.4173 79.7187 18.4061 79.7201 18.3949C79.7215 18.3838 79.7267 18.3734 79.7349 18.3653C79.7515 18.3529 79.7715 18.3452 79.7926 18.3433C79.8137 18.3414 79.8349 18.3452 79.8537 18.3544L79.8339 18.3902C79.8235 18.3842 79.8115 18.381 79.7993 18.381C79.787 18.381 79.775 18.3842 79.7646 18.3902V18.4026L79.7679 18.4052ZM79.8697 18.3155C79.8543 18.2724 79.8042 18.2527 79.7596 18.2319C79.7492 18.2583 79.7317 18.2818 79.7089 18.2999C79.686 18.3181 79.6586 18.3304 79.6292 18.3357C79.6343 18.3851 79.6224 18.4348 79.5951 18.4773C79.6847 18.4721 79.7744 18.4872 79.8565 18.5214L79.8433 18.5598C79.7594 18.5241 79.6668 18.5105 79.5753 18.5204V18.5043C79.5322 18.539 79.4799 18.562 79.4239 18.5707L79.386 18.5806L79.3744 18.5422C79.3879 18.5403 79.4011 18.5366 79.4135 18.5313C79.4616 18.5201 79.5046 18.4946 79.5362 18.4587C79.5612 18.4194 79.57 18.3729 79.561 18.3279C79.5589 18.3171 79.5544 18.3068 79.5476 18.2978C79.5409 18.2889 79.5321 18.2814 79.5219 18.276C79.5083 18.2677 79.4924 18.2632 79.4762 18.2632C79.46 18.2632 79.4441 18.2677 79.4305 18.276C79.4085 18.2983 79.3943 18.3265 79.3899 18.3566C79.3854 18.3868 79.391 18.4176 79.4058 18.4447L79.3717 18.468C79.3517 18.4325 79.3446 18.3919 79.3514 18.3522C79.3583 18.3126 79.3787 18.2762 79.4096 18.2485C79.4289 18.233 79.4528 18.2235 79.478 18.2212C79.5032 18.219 79.5285 18.2242 79.5505 18.2361C79.5754 18.2482 79.5949 18.2682 79.6056 18.2926C79.6551 18.2802 79.7156 18.2506 79.7129 18.2003V18.1681L79.7442 18.1816L79.7745 18.1951C79.8033 18.2029 79.8299 18.2165 79.8524 18.2351C79.875 18.2536 79.8929 18.2767 79.9049 18.3025L79.8697 18.3155ZM79.457 18.4192C79.456 18.393 79.4647 18.3673 79.4817 18.3466L79.5142 18.3725C79.5026 18.3856 79.4969 18.4023 79.4982 18.4192H79.457ZM80.0282 18.6901H79.9732V17.8081H81.3567V17.8599H80.0172V18.6901H80.0282ZM80.1498 18.6102H80.0948V17.9409H81.2538V17.9928H80.1471V18.6086L80.1498 18.6102ZM80.5416 18.4545C80.5322 18.4371 80.517 18.4232 80.4982 18.4149C80.4795 18.4067 80.4584 18.4045 80.4382 18.4089C80.4228 18.4089 80.4162 18.4223 80.4041 18.4395C80.3927 18.4608 80.3729 18.4772 80.349 18.4851L80.3386 18.4467C80.3518 18.4467 80.3595 18.4332 80.3699 18.4172C80.3759 18.4052 80.3847 18.3947 80.3955 18.3863C80.4064 18.378 80.4191 18.372 80.4327 18.3689C80.4619 18.3627 80.4926 18.3661 80.5194 18.3787C80.5463 18.3913 80.5677 18.4122 80.5802 18.4379L80.5416 18.4545ZM81.0435 18.4545L81.0028 18.4633C80.9956 18.4421 80.9956 18.4192 81.0028 18.398C80.9386 18.4223 80.868 18.4275 80.8005 18.4129C80.7331 18.3984 80.6719 18.3647 80.6253 18.3165C80.6201 18.3111 80.6139 18.3068 80.6069 18.3039C80.5998 18.3009 80.5922 18.2994 80.5846 18.2994C80.5752 18.3414 80.6368 18.3891 80.6985 18.4125L80.6842 18.4493C80.6071 18.4208 80.5301 18.3596 80.5433 18.2906C80.5451 18.282 80.5493 18.274 80.5555 18.2675C80.5617 18.2611 80.5696 18.2563 80.5785 18.2537C80.5935 18.2519 80.6088 18.2537 80.6229 18.2589C80.637 18.264 80.6496 18.2724 80.6594 18.2833C80.7137 18.3355 80.7862 18.3674 80.8635 18.373C80.9409 18.3787 81.0177 18.3577 81.0799 18.3139L81.1035 18.3461C81.0523 18.3819 81.0314 18.4125 81.0397 18.4472L81.0435 18.4545ZM81.3187 18.4296C81.3005 18.4245 81.283 18.4175 81.2664 18.4089C81.2522 18.4005 81.2362 18.395 81.2196 18.3928C81.1976 18.3928 81.1855 18.4135 81.1646 18.4447L81.153 18.4654L81.1189 18.4457C81.1189 18.4384 81.1266 18.4322 81.1294 18.426C81.1475 18.3928 81.1712 18.3497 81.2207 18.3497C81.2441 18.351 81.2668 18.3581 81.2862 18.3705C81.2993 18.3776 81.3134 18.383 81.328 18.3865L81.3187 18.4296ZM81.3644 18.3175C81.3368 18.3175 81.2543 18.3175 81.2339 18.2657V18.2574C81.2235 18.2231 81.2158 18.1946 81.1872 18.1785C81.1626 18.1705 81.1358 18.1705 81.1112 18.1785C81.0879 18.1879 81.0663 18.2009 81.0474 18.2169C81.0314 18.2278 81.016 18.2392 80.999 18.2491C80.9372 18.2719 80.87 18.2784 80.8046 18.2678C80.7392 18.2572 80.6781 18.2299 80.628 18.1889C80.616 18.1809 80.6024 18.1753 80.5881 18.1723C80.5737 18.1694 80.5588 18.1692 80.5444 18.1717C80.5259 18.1794 80.5103 18.1923 80.4998 18.2086C80.4877 18.2245 80.4725 18.2382 80.4552 18.2491C80.4377 18.2556 80.4191 18.2589 80.4002 18.2589C80.3861 18.2559 80.3714 18.2559 80.3573 18.2589C80.3441 18.2662 80.343 18.2812 80.3413 18.302C80.3423 18.3236 80.3345 18.3448 80.3193 18.3611L80.2918 18.3808L80.2654 18.3995C80.2522 18.4083 80.256 18.44 80.2588 18.455H80.217C80.217 18.428 80.2093 18.385 80.2406 18.3627L80.2681 18.343L80.294 18.3258C80.3006 18.3258 80.294 18.3087 80.3006 18.2937C80.2992 18.2798 80.3017 18.2659 80.3076 18.2532C80.3136 18.2405 80.3229 18.2294 80.3347 18.221C80.3539 18.21 80.3761 18.2048 80.3986 18.206C80.4098 18.2079 80.4214 18.2079 80.4327 18.206C80.4455 18.1972 80.4565 18.1863 80.4651 18.1738C80.4805 18.1504 80.5035 18.1322 80.5306 18.1219C80.5715 18.1149 80.6136 18.1228 80.6484 18.1442C80.6927 18.1812 80.7467 18.2064 80.8048 18.2169C80.8628 18.2275 80.9229 18.2232 80.9786 18.2044L81.0215 18.1749C81.0439 18.1563 81.0696 18.1418 81.0975 18.1318C81.1321 18.12 81.1701 18.12 81.2048 18.1318C81.2235 18.1433 81.2393 18.1585 81.2511 18.1765C81.2628 18.1944 81.2701 18.2146 81.2725 18.2356C81.2725 18.2454 81.2895 18.2599 81.3589 18.2599V18.3004L81.3644 18.3175ZM82.6879 18.6869H81.4717V17.8252H82.6879V18.6869Z" fill="#0068F5"/>
</g>
<defs>
<clipPath id="clip0_2491_5313">
<rect width="12.0778" height="18.4125" fill="white" transform="translate(74.7793 9.58789)"/>
</clipPath>
</defs>
</svg>
